<?xml version="1.0" encoding="utf-8"?>
<svg xmlns="http://www.w3.org/2000/svg" xmlns:xlink="http://www.w3.org/1999/xlink" width="600" height="400" viewBox="0 0 2400 1600">
<defs>
  <clipPath id="clip890">
    <rect x="0" y="0" width="2400" height="1600"/>
  </clipPath>
</defs>
<path clip-path="url(#clip890)" d="M0 1600 L2400 1600 L2400 0 L0 0  Z" fill="#ffffff" fill-rule="evenodd" fill-opacity="1"/>
<defs>
  <clipPath id="clip891">
    <rect x="480" y="0" width="1681" height="1600"/>
  </clipPath>
</defs>
<path clip-path="url(#clip890)" d="M203.964 1423.18 L2352.76 1423.18 L2352.76 47.2441 L203.964 47.2441  Z" fill="#ffffff" fill-rule="evenodd" fill-opacity="1"/>
<defs>
  <clipPath id="clip892">
    <rect x="203" y="47" width="2150" height="1377"/>
  </clipPath>
</defs>
<polyline clip-path="url(#clip892)" style="stroke:#000000; stroke-linecap:round; stroke-linejoin:round; stroke-width:2; stroke-opacity:0.1; fill:none" points="264.778,1423.18 264.778,47.2441 "/>
<polyline clip-path="url(#clip892)" style="stroke:#000000; stroke-linecap:round; stroke-linejoin:round; stroke-width:2; stroke-opacity:0.1; fill:none" points="940.499,1423.18 940.499,47.2441 "/>
<polyline clip-path="url(#clip892)" style="stroke:#000000; stroke-linecap:round; stroke-linejoin:round; stroke-width:2; stroke-opacity:0.1; fill:none" points="1616.22,1423.18 1616.22,47.2441 "/>
<polyline clip-path="url(#clip892)" style="stroke:#000000; stroke-linecap:round; stroke-linejoin:round; stroke-width:2; stroke-opacity:0.1; fill:none" points="2291.94,1423.18 2291.94,47.2441 "/>
<polyline clip-path="url(#clip892)" style="stroke:#000000; stroke-linecap:round; stroke-linejoin:round; stroke-width:2; stroke-opacity:0.1; fill:none" points="264.778,1423.18 264.778,47.2441 "/>
<polyline clip-path="url(#clip892)" style="stroke:#000000; stroke-linecap:round; stroke-linejoin:round; stroke-width:2; stroke-opacity:0.1; fill:none" points="940.499,1423.18 940.499,47.2441 "/>
<polyline clip-path="url(#clip892)" style="stroke:#000000; stroke-linecap:round; stroke-linejoin:round; stroke-width:2; stroke-opacity:0.1; fill:none" points="1616.22,1423.18 1616.22,47.2441 "/>
<polyline clip-path="url(#clip892)" style="stroke:#000000; stroke-linecap:round; stroke-linejoin:round; stroke-width:2; stroke-opacity:0.1; fill:none" points="2291.94,1423.18 2291.94,47.2441 "/>
<polyline clip-path="url(#clip892)" style="stroke:#000000; stroke-linecap:round; stroke-linejoin:round; stroke-width:2; stroke-opacity:0.1; fill:none" points="203.964,1411.48 2352.76,1411.48 "/>
<polyline clip-path="url(#clip892)" style="stroke:#000000; stroke-linecap:round; stroke-linejoin:round; stroke-width:2; stroke-opacity:0.1; fill:none" points="203.964,1169.68 2352.76,1169.68 "/>
<polyline clip-path="url(#clip892)" style="stroke:#000000; stroke-linecap:round; stroke-linejoin:round; stroke-width:2; stroke-opacity:0.1; fill:none" points="203.964,927.868 2352.76,927.868 "/>
<polyline clip-path="url(#clip892)" style="stroke:#000000; stroke-linecap:round; stroke-linejoin:round; stroke-width:2; stroke-opacity:0.1; fill:none" points="203.964,686.061 2352.76,686.061 "/>
<polyline clip-path="url(#clip892)" style="stroke:#000000; stroke-linecap:round; stroke-linejoin:round; stroke-width:2; stroke-opacity:0.1; fill:none" points="203.964,444.253 2352.76,444.253 "/>
<polyline clip-path="url(#clip892)" style="stroke:#000000; stroke-linecap:round; stroke-linejoin:round; stroke-width:2; stroke-opacity:0.1; fill:none" points="203.964,202.445 2352.76,202.445 "/>
<polyline clip-path="url(#clip892)" style="stroke:#000000; stroke-linecap:round; stroke-linejoin:round; stroke-width:2; stroke-opacity:0.1; fill:none" points="203.964,1411.48 2352.76,1411.48 "/>
<polyline clip-path="url(#clip892)" style="stroke:#000000; stroke-linecap:round; stroke-linejoin:round; stroke-width:2; stroke-opacity:0.1; fill:none" points="203.964,1169.68 2352.76,1169.68 "/>
<polyline clip-path="url(#clip892)" style="stroke:#000000; stroke-linecap:round; stroke-linejoin:round; stroke-width:2; stroke-opacity:0.1; fill:none" points="203.964,927.868 2352.76,927.868 "/>
<polyline clip-path="url(#clip892)" style="stroke:#000000; stroke-linecap:round; stroke-linejoin:round; stroke-width:2; stroke-opacity:0.1; fill:none" points="203.964,686.061 2352.76,686.061 "/>
<polyline clip-path="url(#clip892)" style="stroke:#000000; stroke-linecap:round; stroke-linejoin:round; stroke-width:2; stroke-opacity:0.1; fill:none" points="203.964,444.253 2352.76,444.253 "/>
<polyline clip-path="url(#clip892)" style="stroke:#000000; stroke-linecap:round; stroke-linejoin:round; stroke-width:2; stroke-opacity:0.1; fill:none" points="203.964,202.445 2352.76,202.445 "/>
<polyline clip-path="url(#clip890)" style="stroke:#000000; stroke-linecap:round; stroke-linejoin:round; stroke-width:4; stroke-opacity:1; fill:none" points="203.964,1423.18 2352.76,1423.18 "/>
<polyline clip-path="url(#clip890)" style="stroke:#000000; stroke-linecap:round; stroke-linejoin:round; stroke-width:4; stroke-opacity:1; fill:none" points="203.964,47.2441 2352.76,47.2441 "/>
<polyline clip-path="url(#clip890)" style="stroke:#000000; stroke-linecap:round; stroke-linejoin:round; stroke-width:4; stroke-opacity:1; fill:none" points="264.778,1423.18 264.778,1404.28 "/>
<polyline clip-path="url(#clip890)" style="stroke:#000000; stroke-linecap:round; stroke-linejoin:round; stroke-width:4; stroke-opacity:1; fill:none" points="940.499,1423.18 940.499,1404.28 "/>
<polyline clip-path="url(#clip890)" style="stroke:#000000; stroke-linecap:round; stroke-linejoin:round; stroke-width:4; stroke-opacity:1; fill:none" points="1616.22,1423.18 1616.22,1404.28 "/>
<polyline clip-path="url(#clip890)" style="stroke:#000000; stroke-linecap:round; stroke-linejoin:round; stroke-width:4; stroke-opacity:1; fill:none" points="2291.94,1423.18 2291.94,1404.28 "/>
<polyline clip-path="url(#clip890)" style="stroke:#000000; stroke-linecap:round; stroke-linejoin:round; stroke-width:4; stroke-opacity:1; fill:none" points="264.778,47.2441 264.778,66.1417 "/>
<polyline clip-path="url(#clip890)" style="stroke:#000000; stroke-linecap:round; stroke-linejoin:round; stroke-width:4; stroke-opacity:1; fill:none" points="940.499,47.2441 940.499,66.1417 "/>
<polyline clip-path="url(#clip890)" style="stroke:#000000; stroke-linecap:round; stroke-linejoin:round; stroke-width:4; stroke-opacity:1; fill:none" points="1616.22,47.2441 1616.22,66.1417 "/>
<polyline clip-path="url(#clip890)" style="stroke:#000000; stroke-linecap:round; stroke-linejoin:round; stroke-width:4; stroke-opacity:1; fill:none" points="2291.94,47.2441 2291.94,66.1417 "/>
<path clip-path="url(#clip890)" d="M264.778 1454.1 Q261.167 1454.1 259.339 1457.66 Q257.533 1461.2 257.533 1468.33 Q257.533 1475.44 259.339 1479.01 Q261.167 1482.55 264.778 1482.55 Q268.413 1482.55 270.218 1479.01 Q272.047 1475.44 272.047 1468.33 Q272.047 1461.2 270.218 1457.66 Q268.413 1454.1 264.778 1454.1 M264.778 1450.39 Q270.589 1450.39 273.644 1455 Q276.723 1459.58 276.723 1468.33 Q276.723 1477.06 273.644 1481.67 Q270.589 1486.25 264.778 1486.25 Q258.968 1486.25 255.89 1481.67 Q252.834 1477.06 252.834 1468.33 Q252.834 1459.58 255.89 1455 Q258.968 1450.39 264.778 1450.39 Z" fill="#000000" fill-rule="nonzero" fill-opacity="1" /><path clip-path="url(#clip890)" d="M900.106 1481.64 L907.745 1481.64 L907.745 1455.28 L899.435 1456.95 L899.435 1452.69 L907.699 1451.02 L912.374 1451.02 L912.374 1481.64 L920.013 1481.64 L920.013 1485.58 L900.106 1485.58 L900.106 1481.64 Z" fill="#000000" fill-rule="nonzero" fill-opacity="1" /><path clip-path="url(#clip890)" d="M939.458 1454.1 Q935.847 1454.1 934.018 1457.66 Q932.212 1461.2 932.212 1468.33 Q932.212 1475.44 934.018 1479.01 Q935.847 1482.55 939.458 1482.55 Q943.092 1482.55 944.897 1479.01 Q946.726 1475.44 946.726 1468.33 Q946.726 1461.2 944.897 1457.66 Q943.092 1454.1 939.458 1454.1 M939.458 1450.39 Q945.268 1450.39 948.323 1455 Q951.402 1459.58 951.402 1468.33 Q951.402 1477.06 948.323 1481.67 Q945.268 1486.25 939.458 1486.25 Q933.647 1486.25 930.569 1481.67 Q927.513 1477.06 927.513 1468.33 Q927.513 1459.58 930.569 1455 Q933.647 1450.39 939.458 1450.39 Z" fill="#000000" fill-rule="nonzero" fill-opacity="1" /><path clip-path="url(#clip890)" d="M969.62 1454.1 Q966.008 1454.1 964.18 1457.66 Q962.374 1461.2 962.374 1468.33 Q962.374 1475.44 964.18 1479.01 Q966.008 1482.55 969.62 1482.55 Q973.254 1482.55 975.059 1479.01 Q976.888 1475.44 976.888 1468.33 Q976.888 1461.2 975.059 1457.66 Q973.254 1454.1 969.62 1454.1 M969.62 1450.39 Q975.43 1450.39 978.485 1455 Q981.564 1459.58 981.564 1468.33 Q981.564 1477.06 978.485 1481.67 Q975.43 1486.25 969.62 1486.25 Q963.809 1486.25 960.731 1481.67 Q957.675 1477.06 957.675 1468.33 Q957.675 1459.58 960.731 1455 Q963.809 1450.39 969.62 1450.39 Z" fill="#000000" fill-rule="nonzero" fill-opacity="1" /><path clip-path="url(#clip890)" d="M1579.91 1481.64 L1596.23 1481.64 L1596.23 1485.58 L1574.29 1485.58 L1574.29 1481.64 Q1576.95 1478.89 1581.53 1474.26 Q1586.14 1469.61 1587.32 1468.27 Q1589.57 1465.74 1590.44 1464.01 Q1591.35 1462.25 1591.35 1460.56 Q1591.35 1457.8 1589.4 1456.07 Q1587.48 1454.33 1584.38 1454.33 Q1582.18 1454.33 1579.73 1455.09 Q1577.3 1455.86 1574.52 1457.41 L1574.52 1452.69 Q1577.34 1451.55 1579.8 1450.97 Q1582.25 1450.39 1584.29 1450.39 Q1589.66 1450.39 1592.85 1453.08 Q1596.05 1455.77 1596.05 1460.26 Q1596.05 1462.39 1595.24 1464.31 Q1594.45 1466.2 1592.34 1468.8 Q1591.76 1469.47 1588.66 1472.69 Q1585.56 1475.88 1579.91 1481.64 Z" fill="#000000" fill-rule="nonzero" fill-opacity="1" /><path clip-path="url(#clip890)" d="M1616.05 1454.1 Q1612.44 1454.1 1610.61 1457.66 Q1608.8 1461.2 1608.8 1468.33 Q1608.8 1475.44 1610.61 1479.01 Q1612.44 1482.55 1616.05 1482.55 Q1619.68 1482.55 1621.49 1479.01 Q1623.32 1475.44 1623.32 1468.33 Q1623.32 1461.2 1621.49 1457.66 Q1619.68 1454.1 1616.05 1454.1 M1616.05 1450.39 Q1621.86 1450.39 1624.91 1455 Q1627.99 1459.58 1627.99 1468.33 Q1627.99 1477.06 1624.91 1481.67 Q1621.86 1486.25 1616.05 1486.25 Q1610.24 1486.25 1607.16 1481.67 Q1604.1 1477.06 1604.1 1468.33 Q1604.1 1459.58 1607.16 1455 Q1610.24 1450.39 1616.05 1450.39 Z" fill="#000000" fill-rule="nonzero" fill-opacity="1" /><path clip-path="url(#clip890)" d="M1646.21 1454.1 Q1642.6 1454.1 1640.77 1457.66 Q1638.96 1461.2 1638.96 1468.33 Q1638.96 1475.44 1640.77 1479.01 Q1642.6 1482.55 1646.21 1482.55 Q1649.84 1482.55 1651.65 1479.01 Q1653.48 1475.44 1653.48 1468.33 Q1653.48 1461.2 1651.65 1457.66 Q1649.84 1454.1 1646.21 1454.1 M1646.21 1450.39 Q1652.02 1450.39 1655.07 1455 Q1658.15 1459.58 1658.15 1468.33 Q1658.15 1477.06 1655.07 1481.67 Q1652.02 1486.25 1646.21 1486.25 Q1640.4 1486.25 1637.32 1481.67 Q1634.26 1477.06 1634.26 1468.33 Q1634.26 1459.58 1637.32 1455 Q1640.4 1450.39 1646.21 1450.39 Z" fill="#000000" fill-rule="nonzero" fill-opacity="1" /><path clip-path="url(#clip890)" d="M2265.7 1466.95 Q2269.06 1467.66 2270.93 1469.93 Q2272.83 1472.2 2272.83 1475.53 Q2272.83 1480.65 2269.31 1483.45 Q2265.8 1486.25 2259.31 1486.25 Q2257.14 1486.25 2254.82 1485.81 Q2252.53 1485.39 2250.08 1484.54 L2250.08 1480.02 Q2252.02 1481.16 2254.34 1481.74 Q2256.65 1482.32 2259.18 1482.32 Q2263.57 1482.32 2265.86 1480.58 Q2268.18 1478.84 2268.18 1475.53 Q2268.18 1472.48 2266.03 1470.77 Q2263.9 1469.03 2260.08 1469.03 L2256.05 1469.03 L2256.05 1465.19 L2260.26 1465.19 Q2263.71 1465.19 2265.54 1463.82 Q2267.37 1462.43 2267.37 1459.84 Q2267.37 1457.18 2265.47 1455.77 Q2263.6 1454.33 2260.08 1454.33 Q2258.16 1454.33 2255.96 1454.75 Q2253.76 1455.16 2251.12 1456.04 L2251.12 1451.88 Q2253.78 1451.14 2256.1 1450.77 Q2258.43 1450.39 2260.49 1450.39 Q2265.82 1450.39 2268.92 1452.83 Q2272.02 1455.23 2272.02 1459.35 Q2272.02 1462.22 2270.38 1464.21 Q2268.74 1466.18 2265.7 1466.95 Z" fill="#000000" fill-rule="nonzero" fill-opacity="1" /><path clip-path="url(#clip890)" d="M2291.7 1454.1 Q2288.09 1454.1 2286.26 1457.66 Q2284.45 1461.2 2284.45 1468.33 Q2284.45 1475.44 2286.26 1479.01 Q2288.09 1482.55 2291.7 1482.55 Q2295.33 1482.55 2297.14 1479.01 Q2298.97 1475.44 2298.97 1468.33 Q2298.97 1461.2 2297.14 1457.66 Q2295.33 1454.1 2291.7 1454.1 M2291.7 1450.39 Q2297.51 1450.39 2300.56 1455 Q2303.64 1459.58 2303.64 1468.33 Q2303.64 1477.06 2300.56 1481.67 Q2297.51 1486.25 2291.7 1486.25 Q2285.89 1486.25 2282.81 1481.67 Q2279.75 1477.06 2279.75 1468.33 Q2279.75 1459.58 2282.81 1455 Q2285.89 1450.39 2291.7 1450.39 Z" fill="#000000" fill-rule="nonzero" fill-opacity="1" /><path clip-path="url(#clip890)" d="M2321.86 1454.1 Q2318.25 1454.1 2316.42 1457.66 Q2314.61 1461.2 2314.61 1468.33 Q2314.61 1475.44 2316.42 1479.01 Q2318.25 1482.55 2321.86 1482.55 Q2325.49 1482.55 2327.3 1479.01 Q2329.13 1475.44 2329.13 1468.33 Q2329.13 1461.2 2327.3 1457.66 Q2325.49 1454.1 2321.86 1454.1 M2321.86 1450.39 Q2327.67 1450.39 2330.73 1455 Q2333.8 1459.58 2333.8 1468.33 Q2333.8 1477.06 2330.73 1481.67 Q2327.67 1486.25 2321.86 1486.25 Q2316.05 1486.25 2312.97 1481.67 Q2309.92 1477.06 2309.92 1468.33 Q2309.92 1459.58 2312.97 1455 Q2316.05 1450.39 2321.86 1450.39 Z" fill="#000000" fill-rule="nonzero" fill-opacity="1" /><path clip-path="url(#clip890)" d="M1028.51 1520.52 L1068.71 1520.52 L1068.71 1525.93 L1051.84 1525.93 L1051.84 1568.04 L1045.37 1568.04 L1045.37 1525.93 L1028.51 1525.93 L1028.51 1520.52 Z" fill="#000000" fill-rule="nonzero" fill-opacity="1" /><path clip-path="url(#clip890)" d="M1072.65 1532.4 L1078.51 1532.4 L1078.51 1568.04 L1072.65 1568.04 L1072.65 1532.4 M1072.65 1518.52 L1078.51 1518.52 L1078.51 1525.93 L1072.65 1525.93 L1072.65 1518.52 Z" fill="#000000" fill-rule="nonzero" fill-opacity="1" /><path clip-path="url(#clip890)" d="M1118.52 1539.24 Q1120.71 1535.29 1123.77 1533.41 Q1126.82 1531.54 1130.96 1531.54 Q1136.53 1531.54 1139.56 1535.45 Q1142.58 1539.33 1142.58 1546.53 L1142.58 1568.04 L1136.69 1568.04 L1136.69 1546.72 Q1136.69 1541.59 1134.88 1539.11 Q1133.06 1536.63 1129.34 1536.63 Q1124.79 1536.63 1122.15 1539.65 Q1119.5 1542.68 1119.5 1547.9 L1119.5 1568.04 L1113.62 1568.04 L1113.62 1546.72 Q1113.62 1541.56 1111.8 1539.11 Q1109.99 1536.63 1106.2 1536.63 Q1101.71 1536.63 1099.07 1539.68 Q1096.43 1542.71 1096.43 1547.9 L1096.43 1568.04 L1090.54 1568.04 L1090.54 1532.4 L1096.43 1532.4 L1096.43 1537.93 Q1098.43 1534.66 1101.23 1533.1 Q1104.03 1531.54 1107.89 1531.54 Q1111.77 1531.54 1114.47 1533.51 Q1117.21 1535.48 1118.52 1539.24 Z" fill="#000000" fill-rule="nonzero" fill-opacity="1" /><path clip-path="url(#clip890)" d="M1184.75 1548.76 L1184.75 1551.62 L1157.83 1551.62 Q1158.21 1557.67 1161.45 1560.85 Q1164.73 1564 1170.56 1564 Q1173.93 1564 1177.08 1563.17 Q1180.26 1562.35 1183.38 1560.69 L1183.38 1566.23 Q1180.23 1567.57 1176.92 1568.27 Q1173.61 1568.97 1170.21 1568.97 Q1161.68 1568.97 1156.68 1564 Q1151.71 1559.04 1151.71 1550.57 Q1151.71 1541.82 1156.42 1536.69 Q1161.17 1531.54 1169.19 1531.54 Q1176.38 1531.54 1180.55 1536.18 Q1184.75 1540.8 1184.75 1548.76 M1178.9 1547.04 Q1178.83 1542.23 1176.19 1539.37 Q1173.58 1536.5 1169.25 1536.5 Q1164.35 1536.5 1161.39 1539.27 Q1158.46 1542.04 1158.02 1547.07 L1178.9 1547.04 Z" fill="#000000" fill-rule="nonzero" fill-opacity="1" /><path clip-path="url(#clip890)" d="M1215.08 1518.52 L1220.94 1518.52 L1220.94 1568.04 L1215.08 1568.04 L1215.08 1518.52 Z" fill="#000000" fill-rule="nonzero" fill-opacity="1" /><path clip-path="url(#clip890)" d="M1249.4 1550.12 Q1242.3 1550.12 1239.56 1551.75 Q1236.82 1553.37 1236.82 1557.29 Q1236.82 1560.4 1238.86 1562.25 Q1240.93 1564.07 1244.46 1564.07 Q1249.33 1564.07 1252.26 1560.63 Q1255.22 1557.16 1255.22 1551.43 L1255.22 1550.12 L1249.4 1550.12 M1261.08 1547.71 L1261.08 1568.04 L1255.22 1568.04 L1255.22 1562.63 Q1253.22 1565.88 1250.22 1567.44 Q1247.23 1568.97 1242.9 1568.97 Q1237.43 1568.97 1234.18 1565.91 Q1230.97 1562.82 1230.97 1557.67 Q1230.97 1551.65 1234.98 1548.6 Q1239.02 1545.54 1247.01 1545.54 L1255.22 1545.54 L1255.22 1544.97 Q1255.22 1540.93 1252.55 1538.73 Q1249.91 1536.5 1245.1 1536.5 Q1242.04 1536.5 1239.15 1537.23 Q1236.25 1537.97 1233.58 1539.43 L1233.58 1534.02 Q1236.79 1532.78 1239.82 1532.17 Q1242.84 1531.54 1245.7 1531.54 Q1253.44 1531.54 1257.26 1535.55 Q1261.08 1539.56 1261.08 1547.71 Z" fill="#000000" fill-rule="nonzero" fill-opacity="1" /><path clip-path="url(#clip890)" d="M1296.6 1549.81 Q1296.6 1543.44 1293.96 1539.94 Q1291.35 1536.44 1286.6 1536.44 Q1281.89 1536.44 1279.25 1539.94 Q1276.64 1543.44 1276.64 1549.81 Q1276.64 1556.14 1279.25 1559.64 Q1281.89 1563.14 1286.6 1563.14 Q1291.35 1563.14 1293.96 1559.64 Q1296.6 1556.14 1296.6 1549.81 M1302.45 1563.62 Q1302.45 1572.72 1298.41 1577.15 Q1294.37 1581.6 1286.03 1581.6 Q1282.94 1581.6 1280.21 1581.13 Q1277.47 1580.68 1274.89 1579.72 L1274.89 1574.03 Q1277.47 1575.43 1279.98 1576.1 Q1282.5 1576.76 1285.11 1576.76 Q1290.87 1576.76 1293.73 1573.74 Q1296.6 1570.75 1296.6 1564.67 L1296.6 1561.77 Q1294.78 1564.92 1291.95 1566.48 Q1289.12 1568.04 1285.17 1568.04 Q1278.61 1568.04 1274.6 1563.05 Q1270.59 1558.05 1270.59 1549.81 Q1270.59 1541.53 1274.6 1536.53 Q1278.61 1531.54 1285.17 1531.54 Q1289.12 1531.54 1291.95 1533.1 Q1294.78 1534.66 1296.6 1537.81 L1296.6 1532.4 L1302.45 1532.4 L1302.45 1563.62 Z" fill="#000000" fill-rule="nonzero" fill-opacity="1" /><path clip-path="url(#clip890)" d="M1349.31 1518.58 Q1345.04 1525.9 1342.97 1533.06 Q1340.9 1540.23 1340.9 1547.58 Q1340.9 1554.93 1342.97 1562.16 Q1345.07 1569.35 1349.31 1576.64 L1344.21 1576.64 Q1339.44 1569.16 1337.05 1561.93 Q1334.7 1554.71 1334.7 1547.58 Q1334.7 1540.48 1337.05 1533.29 Q1339.41 1526.09 1344.21 1518.58 L1349.31 1518.58 Z" fill="#000000" fill-rule="nonzero" fill-opacity="1" /><path clip-path="url(#clip890)" d="M1384.13 1537.81 L1384.13 1518.52 L1389.98 1518.52 L1389.98 1568.04 L1384.13 1568.04 L1384.13 1562.7 Q1382.28 1565.88 1379.45 1567.44 Q1376.65 1568.97 1372.7 1568.97 Q1366.24 1568.97 1362.16 1563.81 Q1358.12 1558.65 1358.12 1550.25 Q1358.12 1541.85 1362.16 1536.69 Q1366.24 1531.54 1372.7 1531.54 Q1376.65 1531.54 1379.45 1533.1 Q1382.28 1534.62 1384.13 1537.81 M1364.17 1550.25 Q1364.17 1556.71 1366.81 1560.4 Q1369.48 1564.07 1374.13 1564.07 Q1378.78 1564.07 1381.45 1560.4 Q1384.13 1556.71 1384.13 1550.25 Q1384.13 1543.79 1381.45 1540.13 Q1378.78 1536.44 1374.13 1536.44 Q1369.48 1536.44 1366.81 1540.13 Q1364.17 1543.79 1364.17 1550.25 Z" fill="#000000" fill-rule="nonzero" fill-opacity="1" /><path clip-path="url(#clip890)" d="M1418.25 1550.12 Q1411.15 1550.12 1408.41 1551.75 Q1405.67 1553.37 1405.67 1557.29 Q1405.67 1560.4 1407.71 1562.25 Q1409.78 1564.07 1413.31 1564.07 Q1418.18 1564.07 1421.11 1560.63 Q1424.07 1557.16 1424.07 1551.43 L1424.07 1550.12 L1418.25 1550.12 M1429.93 1547.71 L1429.93 1568.04 L1424.07 1568.04 L1424.07 1562.63 Q1422.07 1565.88 1419.07 1567.44 Q1416.08 1568.97 1411.75 1568.97 Q1406.28 1568.97 1403.03 1565.91 Q1399.82 1562.82 1399.82 1557.67 Q1399.82 1551.65 1403.83 1548.6 Q1407.87 1545.54 1415.86 1545.54 L1424.07 1545.54 L1424.07 1544.97 Q1424.07 1540.93 1421.4 1538.73 Q1418.76 1536.5 1413.95 1536.5 Q1410.89 1536.5 1408 1537.23 Q1405.1 1537.97 1402.43 1539.43 L1402.43 1534.02 Q1405.64 1532.78 1408.67 1532.17 Q1411.69 1531.54 1414.55 1531.54 Q1422.29 1531.54 1426.11 1535.55 Q1429.93 1539.56 1429.93 1547.71 Z" fill="#000000" fill-rule="nonzero" fill-opacity="1" /><path clip-path="url(#clip890)" d="M1456.82 1571.35 Q1454.34 1577.72 1451.98 1579.66 Q1449.63 1581.6 1445.68 1581.6 L1441 1581.6 L1441 1576.7 L1444.44 1576.7 Q1446.86 1576.7 1448.2 1575.56 Q1449.53 1574.41 1451.16 1570.14 L1452.21 1567.47 L1437.79 1532.4 L1444 1532.4 L1455.14 1560.28 L1466.28 1532.4 L1472.48 1532.4 L1456.82 1571.35 Z" fill="#000000" fill-rule="nonzero" fill-opacity="1" /><path clip-path="url(#clip890)" d="M1503.29 1533.45 L1503.29 1538.98 Q1500.81 1537.71 1498.14 1537.07 Q1495.46 1536.44 1492.6 1536.44 Q1488.24 1536.44 1486.04 1537.77 Q1483.88 1539.11 1483.88 1541.79 Q1483.88 1543.82 1485.44 1545 Q1487 1546.15 1491.71 1547.2 L1493.71 1547.64 Q1499.95 1548.98 1502.56 1551.43 Q1505.2 1553.85 1505.2 1558.21 Q1505.2 1563.17 1501.25 1566.07 Q1497.34 1568.97 1490.47 1568.97 Q1487.6 1568.97 1484.48 1568.39 Q1481.39 1567.85 1477.96 1566.74 L1477.96 1560.69 Q1481.2 1562.38 1484.35 1563.24 Q1487.51 1564.07 1490.59 1564.07 Q1494.73 1564.07 1496.96 1562.66 Q1499.19 1561.23 1499.19 1558.65 Q1499.19 1556.27 1497.56 1554.99 Q1495.97 1553.72 1490.53 1552.54 L1488.49 1552.07 Q1483.05 1550.92 1480.63 1548.56 Q1478.21 1546.18 1478.21 1542.04 Q1478.21 1537.01 1481.78 1534.27 Q1485.34 1531.54 1491.9 1531.54 Q1495.14 1531.54 1498.01 1532.01 Q1500.87 1532.49 1503.29 1533.45 Z" fill="#000000" fill-rule="nonzero" fill-opacity="1" /><path clip-path="url(#clip890)" d="M1513.6 1518.58 L1518.7 1518.58 Q1523.47 1526.09 1525.83 1533.29 Q1528.21 1540.48 1528.21 1547.58 Q1528.21 1554.71 1525.83 1561.93 Q1523.47 1569.16 1518.7 1576.64 L1513.6 1576.64 Q1517.84 1569.35 1519.91 1562.16 Q1522.01 1554.93 1522.01 1547.58 Q1522.01 1540.23 1519.91 1533.06 Q1517.84 1525.9 1513.6 1518.58 Z" fill="#000000" fill-rule="nonzero" fill-opacity="1" /><polyline clip-path="url(#clip890)" style="stroke:#000000; stroke-linecap:round; stroke-linejoin:round; stroke-width:4; stroke-opacity:1; fill:none" points="203.964,1423.18 203.964,47.2441 "/>
<polyline clip-path="url(#clip890)" style="stroke:#000000; stroke-linecap:round; stroke-linejoin:round; stroke-width:4; stroke-opacity:1; fill:none" points="2352.76,1423.18 2352.76,47.2441 "/>
<polyline clip-path="url(#clip890)" style="stroke:#000000; stroke-linecap:round; stroke-linejoin:round; stroke-width:4; stroke-opacity:1; fill:none" points="203.964,1411.48 222.861,1411.48 "/>
<polyline clip-path="url(#clip890)" style="stroke:#000000; stroke-linecap:round; stroke-linejoin:round; stroke-width:4; stroke-opacity:1; fill:none" points="203.964,1169.68 222.861,1169.68 "/>
<polyline clip-path="url(#clip890)" style="stroke:#000000; stroke-linecap:round; stroke-linejoin:round; stroke-width:4; stroke-opacity:1; fill:none" points="203.964,927.868 222.861,927.868 "/>
<polyline clip-path="url(#clip890)" style="stroke:#000000; stroke-linecap:round; stroke-linejoin:round; stroke-width:4; stroke-opacity:1; fill:none" points="203.964,686.061 222.861,686.061 "/>
<polyline clip-path="url(#clip890)" style="stroke:#000000; stroke-linecap:round; stroke-linejoin:round; stroke-width:4; stroke-opacity:1; fill:none" points="203.964,444.253 222.861,444.253 "/>
<polyline clip-path="url(#clip890)" style="stroke:#000000; stroke-linecap:round; stroke-linejoin:round; stroke-width:4; stroke-opacity:1; fill:none" points="203.964,202.445 222.861,202.445 "/>
<polyline clip-path="url(#clip890)" style="stroke:#000000; stroke-linecap:round; stroke-linejoin:round; stroke-width:4; stroke-opacity:1; fill:none" points="2352.76,1411.48 2333.86,1411.48 "/>
<polyline clip-path="url(#clip890)" style="stroke:#000000; stroke-linecap:round; stroke-linejoin:round; stroke-width:4; stroke-opacity:1; fill:none" points="2352.76,1169.68 2333.86,1169.68 "/>
<polyline clip-path="url(#clip890)" style="stroke:#000000; stroke-linecap:round; stroke-linejoin:round; stroke-width:4; stroke-opacity:1; fill:none" points="2352.76,927.868 2333.86,927.868 "/>
<polyline clip-path="url(#clip890)" style="stroke:#000000; stroke-linecap:round; stroke-linejoin:round; stroke-width:4; stroke-opacity:1; fill:none" points="2352.76,686.061 2333.86,686.061 "/>
<polyline clip-path="url(#clip890)" style="stroke:#000000; stroke-linecap:round; stroke-linejoin:round; stroke-width:4; stroke-opacity:1; fill:none" points="2352.76,444.253 2333.86,444.253 "/>
<polyline clip-path="url(#clip890)" style="stroke:#000000; stroke-linecap:round; stroke-linejoin:round; stroke-width:4; stroke-opacity:1; fill:none" points="2352.76,202.445 2333.86,202.445 "/>
<path clip-path="url(#clip890)" d="M156.019 1397.28 Q152.408 1397.28 150.579 1400.85 Q148.774 1404.39 148.774 1411.52 Q148.774 1418.62 150.579 1422.19 Q152.408 1425.73 156.019 1425.73 Q159.653 1425.73 161.459 1422.19 Q163.288 1418.62 163.288 1411.52 Q163.288 1404.39 161.459 1400.85 Q159.653 1397.28 156.019 1397.28 M156.019 1393.58 Q161.829 1393.58 164.885 1398.19 Q167.964 1402.77 167.964 1411.52 Q167.964 1420.25 164.885 1424.85 Q161.829 1429.43 156.019 1429.43 Q150.209 1429.43 147.13 1424.85 Q144.075 1420.25 144.075 1411.52 Q144.075 1402.77 147.13 1398.19 Q150.209 1393.58 156.019 1393.58 Z" fill="#000000" fill-rule="nonzero" fill-opacity="1" /><path clip-path="url(#clip890)" d="M147.061 1152.4 L165.417 1152.4 L165.417 1156.33 L151.343 1156.33 L151.343 1164.8 Q152.362 1164.46 153.38 1164.29 Q154.399 1164.11 155.417 1164.11 Q161.204 1164.11 164.584 1167.28 Q167.964 1170.45 167.964 1175.87 Q167.964 1181.45 164.491 1184.55 Q161.019 1187.63 154.7 1187.63 Q152.524 1187.63 150.255 1187.26 Q148.01 1186.89 145.603 1186.15 L145.603 1181.45 Q147.686 1182.58 149.908 1183.14 Q152.13 1183.69 154.607 1183.69 Q158.612 1183.69 160.95 1181.59 Q163.288 1179.48 163.288 1175.87 Q163.288 1172.26 160.95 1170.15 Q158.612 1168.04 154.607 1168.04 Q152.732 1168.04 150.857 1168.46 Q149.005 1168.88 147.061 1169.76 L147.061 1152.4 Z" fill="#000000" fill-rule="nonzero" fill-opacity="1" /><path clip-path="url(#clip890)" d="M116.668 941.213 L124.306 941.213 L124.306 914.847 L115.996 916.514 L115.996 912.255 L124.26 910.588 L128.936 910.588 L128.936 941.213 L136.575 941.213 L136.575 945.148 L116.668 945.148 L116.668 941.213 Z" fill="#000000" fill-rule="nonzero" fill-opacity="1" /><path clip-path="url(#clip890)" d="M156.019 913.667 Q152.408 913.667 150.579 917.232 Q148.774 920.773 148.774 927.903 Q148.774 935.009 150.579 938.574 Q152.408 942.116 156.019 942.116 Q159.653 942.116 161.459 938.574 Q163.288 935.009 163.288 927.903 Q163.288 920.773 161.459 917.232 Q159.653 913.667 156.019 913.667 M156.019 909.963 Q161.829 909.963 164.885 914.57 Q167.964 919.153 167.964 927.903 Q167.964 936.63 164.885 941.236 Q161.829 945.82 156.019 945.82 Q150.209 945.82 147.13 941.236 Q144.075 936.63 144.075 927.903 Q144.075 919.153 147.13 914.57 Q150.209 909.963 156.019 909.963 Z" fill="#000000" fill-rule="nonzero" fill-opacity="1" /><path clip-path="url(#clip890)" d="M117.663 699.405 L125.302 699.405 L125.302 673.04 L116.992 674.706 L116.992 670.447 L125.255 668.781 L129.931 668.781 L129.931 699.405 L137.57 699.405 L137.57 703.341 L117.663 703.341 L117.663 699.405 Z" fill="#000000" fill-rule="nonzero" fill-opacity="1" /><path clip-path="url(#clip890)" d="M147.061 668.781 L165.417 668.781 L165.417 672.716 L151.343 672.716 L151.343 681.188 Q152.362 680.841 153.38 680.679 Q154.399 680.493 155.417 680.493 Q161.204 680.493 164.584 683.665 Q167.964 686.836 167.964 692.253 Q167.964 697.831 164.491 700.933 Q161.019 704.012 154.7 704.012 Q152.524 704.012 150.255 703.641 Q148.01 703.271 145.603 702.53 L145.603 697.831 Q147.686 698.966 149.908 699.521 Q152.13 700.077 154.607 700.077 Q158.612 700.077 160.95 697.97 Q163.288 695.864 163.288 692.253 Q163.288 688.642 160.95 686.535 Q158.612 684.429 154.607 684.429 Q152.732 684.429 150.857 684.845 Q149.005 685.262 147.061 686.142 L147.061 668.781 Z" fill="#000000" fill-rule="nonzero" fill-opacity="1" /><path clip-path="url(#clip890)" d="M119.885 457.598 L136.204 457.598 L136.204 461.533 L114.26 461.533 L114.26 457.598 Q116.922 454.843 121.505 450.213 Q126.112 445.561 127.292 444.218 Q129.538 441.695 130.417 439.959 Q131.32 438.2 131.32 436.51 Q131.32 433.755 129.376 432.019 Q127.455 430.283 124.353 430.283 Q122.154 430.283 119.7 431.047 Q117.269 431.811 114.492 433.362 L114.492 428.639 Q117.316 427.505 119.769 426.927 Q122.223 426.348 124.26 426.348 Q129.63 426.348 132.825 429.033 Q136.019 431.718 136.019 436.209 Q136.019 438.338 135.209 440.26 Q134.422 442.158 132.316 444.75 Q131.737 445.422 128.635 448.639 Q125.533 451.834 119.885 457.598 Z" fill="#000000" fill-rule="nonzero" fill-opacity="1" /><path clip-path="url(#clip890)" d="M156.019 430.052 Q152.408 430.052 150.579 433.616 Q148.774 437.158 148.774 444.288 Q148.774 451.394 150.579 454.959 Q152.408 458.5 156.019 458.5 Q159.653 458.5 161.459 454.959 Q163.288 451.394 163.288 444.288 Q163.288 437.158 161.459 433.616 Q159.653 430.052 156.019 430.052 M156.019 426.348 Q161.829 426.348 164.885 430.954 Q167.964 435.538 167.964 444.288 Q167.964 453.014 164.885 457.621 Q161.829 462.204 156.019 462.204 Q150.209 462.204 147.13 457.621 Q144.075 453.014 144.075 444.288 Q144.075 435.538 147.13 430.954 Q150.209 426.348 156.019 426.348 Z" fill="#000000" fill-rule="nonzero" fill-opacity="1" /><path clip-path="url(#clip890)" d="M120.88 215.79 L137.2 215.79 L137.2 219.725 L115.256 219.725 L115.256 215.79 Q117.918 213.035 122.501 208.406 Q127.107 203.753 128.288 202.41 Q130.533 199.887 131.413 198.151 Q132.316 196.392 132.316 194.702 Q132.316 191.947 130.371 190.211 Q128.45 188.475 125.348 188.475 Q123.149 188.475 120.695 189.239 Q118.265 190.003 115.487 191.554 L115.487 186.832 Q118.311 185.697 120.765 185.119 Q123.218 184.54 125.255 184.54 Q130.626 184.54 133.82 187.225 Q137.015 189.91 137.015 194.401 Q137.015 196.531 136.204 198.452 Q135.417 200.35 133.311 202.943 Q132.732 203.614 129.63 206.832 Q126.529 210.026 120.88 215.79 Z" fill="#000000" fill-rule="nonzero" fill-opacity="1" /><path clip-path="url(#clip890)" d="M147.061 185.165 L165.417 185.165 L165.417 189.1 L151.343 189.1 L151.343 197.572 Q152.362 197.225 153.38 197.063 Q154.399 196.878 155.417 196.878 Q161.204 196.878 164.584 200.049 Q167.964 203.221 167.964 208.637 Q167.964 214.216 164.491 217.318 Q161.019 220.396 154.7 220.396 Q152.524 220.396 150.255 220.026 Q148.01 219.656 145.603 218.915 L145.603 214.216 Q147.686 215.35 149.908 215.906 Q152.13 216.461 154.607 216.461 Q158.612 216.461 160.95 214.355 Q163.288 212.248 163.288 208.637 Q163.288 205.026 160.95 202.92 Q158.612 200.813 154.607 200.813 Q152.732 200.813 150.857 201.23 Q149.005 201.646 147.061 202.526 L147.061 185.165 Z" fill="#000000" fill-rule="nonzero" fill-opacity="1" /><path clip-path="url(#clip890)" d="M22.818 965.3 L46.4666 974.021 L46.4666 956.548 L22.818 965.3 M16.4842 968.929 L16.4842 961.64 L64.0042 943.53 L64.0042 950.214 L51.8138 954.542 L51.8138 975.963 L64.0042 980.292 L64.0042 987.071 L16.4842 968.929 Z" fill="#000000" fill-rule="nonzero" fill-opacity="1" /><path clip-path="url(#clip890)" d="M49.9359 937.45 L28.3562 937.45 L28.3562 931.594 L49.7131 931.594 Q54.7739 931.594 57.3202 929.621 Q59.8346 927.647 59.8346 923.701 Q59.8346 918.958 56.8109 916.221 Q53.7872 913.452 48.5673 913.452 L28.3562 913.452 L28.3562 907.595 L64.0042 907.595 L64.0042 913.452 L58.5296 913.452 Q61.7762 915.584 63.3676 918.417 Q64.9272 921.218 64.9272 924.942 Q64.9272 931.085 61.1078 934.268 Q57.2883 937.45 49.9359 937.45 M27.4968 922.714 L27.4968 922.714 Z" fill="#000000" fill-rule="nonzero" fill-opacity="1" /><path clip-path="url(#clip890)" d="M18.2347 889.739 L28.3562 889.739 L28.3562 877.676 L32.9077 877.676 L32.9077 889.739 L52.2594 889.739 Q56.6199 889.739 57.8613 888.562 Q59.1026 887.352 59.1026 883.692 L59.1026 877.676 L64.0042 877.676 L64.0042 883.692 Q64.0042 890.472 61.4897 893.05 Q58.9434 895.628 52.2594 895.628 L32.9077 895.628 L32.9077 899.925 L28.3562 899.925 L28.3562 895.628 L18.2347 895.628 L18.2347 889.739 Z" fill="#000000" fill-rule="nonzero" fill-opacity="1" /><path clip-path="url(#clip890)" d="M32.4621 856.16 Q32.4621 860.871 36.1542 863.608 Q39.8145 866.346 46.212 866.346 Q52.6095 866.346 56.3017 863.64 Q59.9619 860.903 59.9619 856.16 Q59.9619 851.482 56.2698 848.744 Q52.5777 846.007 46.212 846.007 Q39.8781 846.007 36.186 848.744 Q32.4621 851.482 32.4621 856.16 M27.4968 856.16 Q27.4968 848.522 32.4621 844.161 Q37.4273 839.801 46.212 839.801 Q54.9649 839.801 59.9619 844.161 Q64.9272 848.522 64.9272 856.16 Q64.9272 863.831 59.9619 868.192 Q54.9649 872.52 46.212 872.52 Q37.4273 872.52 32.4621 868.192 Q27.4968 863.831 27.4968 856.16 Z" fill="#000000" fill-rule="nonzero" fill-opacity="1" /><path clip-path="url(#clip890)" d="M29.7248 804.439 L35.1993 804.439 Q33.8307 806.922 33.1623 809.436 Q32.4621 811.919 32.4621 814.465 Q32.4621 820.162 36.0905 823.313 Q39.6872 826.464 46.212 826.464 Q52.7369 826.464 56.3653 823.313 Q59.9619 820.162 59.9619 814.465 Q59.9619 811.919 59.2935 809.436 Q58.5933 806.922 57.2247 804.439 L62.6355 804.439 Q63.7814 806.89 64.3543 809.532 Q64.9272 812.142 64.9272 815.102 Q64.9272 823.154 59.8664 827.897 Q54.8057 832.639 46.212 832.639 Q37.491 832.639 32.4939 827.865 Q27.4968 823.059 27.4968 814.72 Q27.4968 812.014 28.0697 809.436 Q28.6108 806.858 29.7248 804.439 Z" fill="#000000" fill-rule="nonzero" fill-opacity="1" /><path clip-path="url(#clip890)" d="M32.4621 780.44 Q32.4621 785.151 36.1542 787.888 Q39.8145 790.625 46.212 790.625 Q52.6095 790.625 56.3017 787.92 Q59.9619 785.183 59.9619 780.44 Q59.9619 775.762 56.2698 773.024 Q52.5777 770.287 46.212 770.287 Q39.8781 770.287 36.186 773.024 Q32.4621 775.762 32.4621 780.44 M27.4968 780.44 Q27.4968 772.801 32.4621 768.441 Q37.4273 764.08 46.212 764.08 Q54.9649 764.08 59.9619 768.441 Q64.9272 772.801 64.9272 780.44 Q64.9272 788.111 59.9619 792.471 Q54.9649 796.8 46.212 796.8 Q37.4273 796.8 32.4621 792.471 Q27.4968 788.111 27.4968 780.44 Z" fill="#000000" fill-rule="nonzero" fill-opacity="1" /><path clip-path="url(#clip890)" d="M28.3562 758.574 L28.3562 752.368 L58.275 741.228 L28.3562 730.088 L28.3562 723.881 L64.0042 737.249 L64.0042 745.206 L28.3562 758.574 Z" fill="#000000" fill-rule="nonzero" fill-opacity="1" /><path clip-path="url(#clip890)" d="M46.0847 699.596 Q46.0847 706.694 47.7079 709.431 Q49.3312 712.168 53.2461 712.168 Q56.3653 712.168 58.2114 710.131 Q60.0256 708.062 60.0256 704.529 Q60.0256 699.659 56.5881 696.731 Q53.1188 693.771 47.3897 693.771 L46.0847 693.771 L46.0847 699.596 M43.6657 687.915 L64.0042 687.915 L64.0042 693.771 L58.5933 693.771 Q61.8398 695.776 63.3994 698.768 Q64.9272 701.76 64.9272 706.089 Q64.9272 711.563 61.8716 714.81 Q58.7843 718.025 53.6281 718.025 Q47.6125 718.025 44.5569 714.014 Q41.5014 709.972 41.5014 701.983 L41.5014 693.771 L40.9285 693.771 Q36.8862 693.771 34.6901 696.445 Q32.4621 699.087 32.4621 703.893 Q32.4621 706.948 33.1941 709.845 Q33.9262 712.741 35.3903 715.415 L29.9795 715.415 Q28.7381 712.2 28.1334 709.176 Q27.4968 706.153 27.4968 703.288 Q27.4968 695.554 31.5072 691.734 Q35.5176 687.915 43.6657 687.915 Z" fill="#000000" fill-rule="nonzero" fill-opacity="1" /><path clip-path="url(#clip890)" d="M33.8307 655.195 Q33.2578 656.182 33.0032 657.359 Q32.7167 658.505 32.7167 659.906 Q32.7167 664.871 35.9632 667.545 Q39.1779 670.186 45.2253 670.186 L64.0042 670.186 L64.0042 676.075 L28.3562 676.075 L28.3562 670.186 L33.8944 670.186 Q30.6479 668.34 29.0883 665.38 Q27.4968 662.42 27.4968 658.187 Q27.4968 657.582 27.5923 656.85 Q27.656 656.118 27.8151 655.227 L33.8307 655.195 Z" fill="#000000" fill-rule="nonzero" fill-opacity="1" /><path clip-path="url(#clip890)" d="M28.3562 649.052 L28.3562 643.196 L64.0042 643.196 L64.0042 649.052 L28.3562 649.052 M14.479 649.052 L14.479 643.196 L21.895 643.196 L21.895 649.052 L14.479 649.052 Z" fill="#000000" fill-rule="nonzero" fill-opacity="1" /><path clip-path="url(#clip890)" d="M46.0847 614.741 Q46.0847 621.839 47.7079 624.576 Q49.3312 627.313 53.2461 627.313 Q56.3653 627.313 58.2114 625.276 Q60.0256 623.207 60.0256 619.674 Q60.0256 614.805 56.5881 611.876 Q53.1188 608.916 47.3897 608.916 L46.0847 608.916 L46.0847 614.741 M43.6657 603.06 L64.0042 603.06 L64.0042 608.916 L58.5933 608.916 Q61.8398 610.922 63.3994 613.913 Q64.9272 616.905 64.9272 621.234 Q64.9272 626.708 61.8716 629.955 Q58.7843 633.17 53.6281 633.17 Q47.6125 633.17 44.5569 629.159 Q41.5014 625.117 41.5014 617.128 L41.5014 608.916 L40.9285 608.916 Q36.8862 608.916 34.6901 611.59 Q32.4621 614.232 32.4621 619.038 Q32.4621 622.093 33.1941 624.99 Q33.9262 627.886 35.3903 630.56 L29.9795 630.56 Q28.7381 627.345 28.1334 624.321 Q27.4968 621.298 27.4968 618.433 Q27.4968 610.699 31.5072 606.879 Q35.5176 603.06 43.6657 603.06 Z" fill="#000000" fill-rule="nonzero" fill-opacity="1" /><path clip-path="url(#clip890)" d="M42.4881 561.365 L64.0042 561.365 L64.0042 567.221 L42.679 567.221 Q37.6183 567.221 35.1038 569.194 Q32.5894 571.168 32.5894 575.114 Q32.5894 579.857 35.6131 582.594 Q38.6368 585.331 43.8567 585.331 L64.0042 585.331 L64.0042 591.22 L28.3562 591.22 L28.3562 585.331 L33.8944 585.331 Q30.6797 583.231 29.0883 580.398 Q27.4968 577.533 27.4968 573.809 Q27.4968 567.667 31.3163 564.516 Q35.1038 561.365 42.4881 561.365 Z" fill="#000000" fill-rule="nonzero" fill-opacity="1" /><path clip-path="url(#clip890)" d="M29.7248 524.03 L35.1993 524.03 Q33.8307 526.512 33.1623 529.027 Q32.4621 531.509 32.4621 534.056 Q32.4621 539.753 36.0905 542.904 Q39.6872 546.055 46.212 546.055 Q52.7369 546.055 56.3653 542.904 Q59.9619 539.753 59.9619 534.056 Q59.9619 531.509 59.2935 529.027 Q58.5933 526.512 57.2247 524.03 L62.6355 524.03 Q63.7814 526.48 64.3543 529.122 Q64.9272 531.732 64.9272 534.692 Q64.9272 542.745 59.8664 547.487 Q54.8057 552.23 46.212 552.23 Q37.491 552.23 32.4939 547.455 Q27.4968 542.649 27.4968 534.31 Q27.4968 531.605 28.0697 529.027 Q28.6108 526.449 29.7248 524.03 Z" fill="#000000" fill-rule="nonzero" fill-opacity="1" /><path clip-path="url(#clip890)" d="M44.7161 483.353 L47.5806 483.353 L47.5806 510.28 Q53.6281 509.898 56.8109 506.651 Q59.9619 503.373 59.9619 497.548 Q59.9619 494.174 59.1344 491.023 Q58.3069 487.841 56.6518 484.721 L62.1899 484.721 Q63.5267 487.872 64.227 491.183 Q64.9272 494.493 64.9272 497.898 Q64.9272 506.428 59.9619 511.426 Q54.9967 516.391 46.5303 516.391 Q37.7774 516.391 32.6531 511.68 Q27.4968 506.938 27.4968 498.917 Q27.4968 491.724 32.1438 487.554 Q36.7589 483.353 44.7161 483.353 M42.9973 489.209 Q38.1912 489.273 35.3266 491.915 Q32.4621 494.525 32.4621 498.853 Q32.4621 503.755 35.2312 506.715 Q38.0002 509.643 43.0292 510.089 L42.9973 489.209 Z" fill="#000000" fill-rule="nonzero" fill-opacity="1" /><polyline clip-path="url(#clip892)" style="stroke:#009af9; stroke-linecap:round; stroke-linejoin:round; stroke-width:4; stroke-opacity:1; fill:none" points="264.778,86.1857 266.808,89.8047 268.837,98.7668 270.866,111.722 272.895,127.857 274.924,146.575 276.954,167.406 278.983,189.962 281.012,213.916 283.041,238.992 285.07,264.951 287.1,291.586 289.129,318.714 291.158,346.176 293.187,373.832 295.216,401.558 297.246,429.246 299.275,456.804 301.304,484.149 303.333,511.208 305.362,537.92 307.391,564.229 309.421,590.089 311.45,615.458 313.479,640.303 315.508,664.594 317.537,688.307 319.567,711.424 321.596,733.93 323.625,755.814 325.654,777.068 327.683,797.689 329.713,817.676 331.742,837.029 333.771,855.752 335.8,873.85 337.829,891.33 339.859,908.2 341.888,924.47 343.917,940.151 345.946,955.254 347.975,969.791 350.005,983.776 352.034,997.221 354.063,1010.14 356.092,1022.55 358.121,1034.46 360.15,1045.89 362.18,1056.86 364.209,1067.37 366.238,1077.45 368.267,1087.1 370.296,1096.34 372.326,1105.2 374.355,1113.67 376.384,1121.78 378.413,1129.54 380.442,1136.97 382.472,1144.07 384.501,1150.87 386.53,1157.37 388.559,1163.59 390.588,1169.54 392.618,1175.23 394.647,1180.67 396.676,1185.89 398.705,1190.87 400.734,1195.65 402.763,1200.22 404.793,1204.6 406.822,1208.79 408.851,1212.81 410.88,1216.67 412.909,1220.37 414.939,1223.91 416.968,1227.32 418.997,1230.59 421.026,1233.73 423.055,1236.75 425.085,1239.65 427.114,1242.44 429.143,1245.13 431.172,1247.72 433.201,1250.21 435.231,1252.61 437.26,1254.92 439.289,1257.16 441.318,1259.31 443.347,1261.39 445.377,1263.39 447.406,1265.33 449.435,1267.2 451.464,1269.01 453.493,1270.75 455.522,1272.44 457.552,1274.07 459.581,1275.64 461.61,1277.17 463.639,1278.64 465.668,1280.06 467.698,1281.43 469.727,1282.76 471.756,1284.05 473.785,1285.29 475.814,1286.49 477.844,1287.64 479.873,1288.76 481.902,1289.84 483.931,1290.88 485.96,1291.89 487.99,1292.86 490.019,1293.79 492.048,1294.69 494.077,1295.56 496.106,1296.39 498.136,1297.2 500.165,1297.97 502.194,1298.71 504.223,1299.43 506.252,1300.11 508.281,1300.77 510.311,1301.41 512.34,1302.01 514.369,1302.59 516.398,1303.15 518.427,1303.68 520.457,1304.19 522.486,1304.68 524.515,1305.15 526.544,1305.59 528.573,1306.02 530.603,1306.42 532.632,1306.81 534.661,1307.18 536.69,1307.53 538.719,1307.87 540.749,1308.18 542.778,1308.49 544.807,1308.78 546.836,1309.05 548.865,1309.31 550.894,1309.56 552.924,1309.8 554.953,1310.03 556.982,1310.24 559.011,1310.45 561.04,1310.64 563.07,1310.83 565.099,1311 567.128,1311.17 569.157,1311.34 571.186,1311.49 573.216,1311.64 575.245,1311.78 577.274,1311.92 579.303,1312.05 581.332,1312.18 583.362,1312.31 585.391,1312.43 587.42,1312.55 589.449,1312.66 591.478,1312.78 593.508,1312.89 595.537,1313 597.566,1313.11 599.595,1313.22 601.624,1313.32 603.653,1313.43 605.683,1313.54 607.712,1313.65 609.741,1313.76 611.77,1313.87 613.799,1313.98 615.829,1314.09 617.858,1314.21 619.887,1314.33 621.916,1314.44 623.945,1314.57 625.975,1314.69 628.004,1314.81 630.033,1314.94 632.062,1315.08 634.091,1315.21 636.121,1315.35 638.15,1315.49 640.179,1315.63 642.208,1315.78 644.237,1315.93 646.267,1316.09 648.296,1316.24 650.325,1316.41 652.354,1316.57 654.383,1316.74 656.412,1316.91 658.442,1317.09 660.471,1317.27 662.5,1317.45 664.529,1317.64 666.558,1317.83 668.588,1318.03 670.617,1318.22 672.646,1318.43 674.675,1318.63 676.704,1318.84 678.734,1319.05 680.763,1319.27 682.792,1319.49 684.821,1319.71 686.85,1319.94 688.88,1320.17 690.909,1320.4 692.938,1320.64 694.967,1320.87 696.996,1321.12 699.025,1321.36 701.055,1321.61 703.084,1321.86 705.113,1322.11 707.142,1322.36 709.171,1322.62 711.201,1322.88 713.23,1323.14 715.259,1323.41 717.288,1323.67 719.317,1323.94 721.347,1324.21 723.376,1324.49 725.405,1324.76 727.434,1325.04 729.463,1325.31 731.493,1325.59 733.522,1325.87 735.551,1326.16 737.58,1326.44 739.609,1326.72 741.639,1327.01 743.668,1327.3 745.697,1327.58 747.726,1327.87 749.755,1328.16 751.784,1328.45 753.814,1328.74 755.843,1329.03 757.872,1329.32 759.901,1329.62 761.93,1329.91 763.96,1330.2 765.989,1330.5 768.018,1330.79 770.047,1331.08 772.076,1331.38 774.106,1331.67 776.135,1331.96 778.164,1332.25 780.193,1332.55 782.222,1332.84 784.252,1333.13 786.281,1333.42 788.31,1333.72 790.339,1334.01 792.368,1334.3 794.398,1334.59 796.427,1334.88 798.456,1335.17 800.485,1335.45 802.514,1335.74 804.543,1336.03 806.573,1336.31 808.602,1336.6 810.631,1336.88 812.66,1337.16 814.689,1337.44 816.719,1337.73 818.748,1338.01 820.777,1338.28 822.806,1338.56 824.835,1338.84 826.865,1339.11 828.894,1339.39 830.923,1339.66 832.952,1339.93 834.981,1340.2 837.011,1340.47 839.04,1340.74 841.069,1341 843.098,1341.27 845.127,1341.53 847.156,1341.79 849.186,1342.05 851.215,1342.31 853.244,1342.57 855.273,1342.83 857.302,1343.08 859.332,1343.34 861.361,1343.59 863.39,1343.84 865.419,1344.09 867.448,1344.34 869.478,1344.58 871.507,1344.83 873.536,1345.07 875.565,1345.31 877.594,1345.55 879.624,1345.79 881.653,1346.03 883.682,1346.26 885.711,1346.5 887.74,1346.73 889.77,1346.96 891.799,1347.19 893.828,1347.42 895.857,1347.64 897.886,1347.87 899.915,1348.09 901.945,1348.31 903.974,1348.53 906.003,1348.75 908.032,1348.97 910.061,1349.18 912.091,1349.39 914.12,1349.61 916.149,1349.82 918.178,1350.03 920.207,1350.23 922.237,1350.44 924.266,1350.65 926.295,1350.85 928.324,1351.05 930.353,1351.25 932.383,1351.45 934.412,1351.65 936.441,1351.84 938.47,1352.04 940.499,1352.23 942.529,1352.42 944.558,1352.61 946.587,1352.8 948.616,1352.99 950.645,1353.17 952.674,1353.36 954.704,1353.54 956.733,1353.72 958.762,1353.9 960.791,1354.08 962.82,1354.26 964.85,1354.44 966.879,1354.61 968.908,1354.79 970.937,1354.96 972.966,1355.13 974.996,1355.3 977.025,1355.47 979.054,1355.63 981.083,1355.8 983.112,1355.97 985.142,1356.13 987.171,1356.29 989.2,1356.45 991.229,1356.61 993.258,1356.77 995.287,1356.93 997.317,1357.08 999.346,1357.24 1001.38,1357.39 1003.4,1357.54 1005.43,1357.69 1007.46,1357.84 1009.49,1357.99 1011.52,1358.14 1013.55,1358.29 1015.58,1358.43 1017.61,1358.58 1019.64,1358.72 1021.67,1358.86 1023.7,1359 1025.73,1359.14 1027.75,1359.28 1029.78,1359.42 1031.81,1359.56 1033.84,1359.69 1035.87,1359.83 1037.9,1359.96 1039.93,1360.09 1041.96,1360.23 1043.99,1360.36 1046.02,1360.49 1048.05,1360.62 1050.08,1360.74 1052.1,1360.87 1054.13,1361 1056.16,1361.12 1058.19,1361.24 1060.22,1361.37 1062.25,1361.49 1064.28,1361.61 1066.31,1361.73 1068.34,1361.85 1070.37,1361.97 1072.4,1362.08 1074.43,1362.2 1076.46,1362.32 1078.48,1362.43 1080.51,1362.54 1082.54,1362.66 1084.57,1362.77 1086.6,1362.88 1088.63,1362.99 1090.66,1363.1 1092.69,1363.21 1094.72,1363.32 1096.75,1363.42 1098.78,1363.53 1100.81,1363.63 1102.83,1363.74 1104.86,1363.84 1106.89,1363.94 1108.92,1364.05 1110.95,1364.15 1112.98,1364.25 1115.01,1364.35 1117.04,1364.45 1119.07,1364.54 1121.1,1364.64 1123.13,1364.74 1125.16,1364.83 1127.18,1364.93 1129.21,1365.02 1131.24,1365.12 1133.27,1365.21 1135.3,1365.3 1137.33,1365.39 1139.36,1365.49 1141.39,1365.58 1143.42,1365.66 1145.45,1365.75 1147.48,1365.84 1149.51,1365.93 1151.54,1366.02 1153.56,1366.1 1155.59,1366.19 1157.62,1366.27 1159.65,1366.36 1161.68,1366.44 1163.71,1366.52 1165.74,1366.6 1167.77,1366.69 1169.8,1366.77 1171.83,1366.85 1173.86,1366.93 1175.89,1367 1177.91,1367.08 1179.94,1367.16 1181.97,1367.24 1184,1367.31 1186.03,1367.39 1188.06,1367.47 1190.09,1367.54 1192.12,1367.62 1194.15,1367.69 1196.18,1367.76 1198.21,1367.83 1200.24,1367.91 1202.27,1367.98 1204.29,1368.05 1206.32,1368.12 1208.35,1368.19 1210.38,1368.26 1212.41,1368.33 1214.44,1368.39 1216.47,1368.46 1218.5,1368.53 1220.53,1368.6 1222.56,1368.66 1224.59,1368.73 1226.62,1368.79 1228.64,1368.86 1230.67,1368.92 1232.7,1368.98 1234.73,1369.05 1236.76,1369.11 1238.79,1369.17 1240.82,1369.23 1242.85,1369.29 1244.88,1369.36 1246.91,1369.42 1248.94,1369.48 1250.97,1369.53 1252.99,1369.59 1255.02,1369.65 1257.05,1369.71 1259.08,1369.77 1261.11,1369.82 1263.14,1369.88 1265.17,1369.94 1267.2,1369.99 1269.23,1370.05 1271.26,1370.1 1273.29,1370.16 1275.32,1370.21 1277.35,1370.27 1279.37,1370.32 1281.4,1370.37 1283.43,1370.42 1285.46,1370.48 1287.49,1370.53 1289.52,1370.58 1291.55,1370.63 1293.58,1370.68 1295.61,1370.73 1297.64,1370.78 1299.67,1370.83 1301.7,1370.88 1303.72,1370.93 1305.75,1370.98 1307.78,1371.02 1309.81,1371.07 1311.84,1371.12 1313.87,1371.17 1315.9,1371.21 1317.93,1371.26 1319.96,1371.31 1321.99,1371.35 1324.02,1371.4 1326.05,1371.44 1328.07,1371.49 1330.1,1371.53 1332.13,1371.57 1334.16,1371.62 1336.19,1371.66 1338.22,1371.7 1340.25,1371.75 1342.28,1371.79 1344.31,1371.83 1346.34,1371.87 1348.37,1371.92 1350.4,1371.96 1352.43,1372 1354.45,1372.04 1356.48,1372.08 1358.51,1372.12 1360.54,1372.16 1362.57,1372.2 1364.6,1372.24 1366.63,1372.28 1368.66,1372.32 1370.69,1372.36 1372.72,1372.39 1374.75,1372.43 1376.78,1372.47 1378.8,1372.51 1380.83,1372.55 1382.86,1372.58 1384.89,1372.62 1386.92,1372.66 1388.95,1372.69 1390.98,1372.73 1393.01,1372.77 1395.04,1372.8 1397.07,1372.84 1399.1,1372.87 1401.13,1372.91 1403.16,1372.94 1405.18,1372.98 1407.21,1373.01 1409.24,1373.05 1411.27,1373.08 1413.3,1373.12 1415.33,1373.15 1417.36,1373.18 1419.39,1373.22 1421.42,1373.25 1423.45,1373.28 1425.48,1373.32 1427.51,1373.35 1429.53,1373.38 1431.56,1373.41 1433.59,1373.45 1435.62,1373.48 1437.65,1373.51 1439.68,1373.54 1441.71,1373.57 1443.74,1373.6 1445.77,1373.64 1447.8,1373.67 1449.83,1373.7 1451.86,1373.73 1453.88,1373.76 1455.91,1373.79 1457.94,1373.82 1459.97,1373.85 1462,1373.88 1464.03,1373.91 1466.06,1373.94 1468.09,1373.97 1470.12,1374 1472.15,1374.03 1474.18,1374.06 1476.21,1374.09 1478.24,1374.11 1480.26,1374.14 1482.29,1374.17 1484.32,1374.2 1486.35,1374.23 1488.38,1374.26 1490.41,1374.29 1492.44,1374.31 1494.47,1374.34 1496.5,1374.37 1498.53,1374.4 1500.56,1374.43 1502.59,1374.45 1504.61,1374.48 1506.64,1374.51 1508.67,1374.54 1510.7,1374.56 1512.73,1374.59 1514.76,1374.62 1516.79,1374.64 1518.82,1374.67 1520.85,1374.7 1522.88,1374.72 1524.91,1374.75 1526.94,1374.78 1528.96,1374.8 1530.99,1374.83 1533.02,1374.86 1535.05,1374.88 1537.08,1374.91 1539.11,1374.93 1541.14,1374.96 1543.17,1374.99 1545.2,1375.01 1547.23,1375.04 1549.26,1375.06 1551.29,1375.09 1553.32,1375.11 1555.34,1375.14 1557.37,1375.17 1559.4,1375.19 1561.43,1375.22 1563.46,1375.24 1565.49,1375.27 1567.52,1375.29 1569.55,1375.32 1571.58,1375.34 1573.61,1375.37 1575.64,1375.39 1577.67,1375.42 1579.69,1375.44 1581.72,1375.47 1583.75,1375.49 1585.78,1375.52 1587.81,1375.54 1589.84,1375.56 1591.87,1375.59 1593.9,1375.61 1595.93,1375.64 1597.96,1375.66 1599.99,1375.69 1602.02,1375.71 1604.05,1375.74 1606.07,1375.76 1608.1,1375.78 1610.13,1375.81 1612.16,1375.83 1614.19,1375.86 1616.22,1375.88 1618.25,1375.91 1620.28,1375.93 1622.31,1375.95 1624.34,1375.98 1626.37,1376 1628.4,1376.03 1630.42,1376.05 1632.45,1376.07 1634.48,1376.1 1636.51,1376.12 1638.54,1376.15 1640.57,1376.17 1642.6,1376.19 1644.63,1376.22 1646.66,1376.24 1648.69,1376.27 1650.72,1376.29 1652.75,1376.31 1654.77,1376.34 1656.8,1376.36 1658.83,1376.38 1660.86,1376.41 1662.89,1376.43 1664.92,1376.46 1666.95,1376.48 1668.98,1376.5 1671.01,1376.53 1673.04,1376.55 1675.07,1376.57 1677.1,1376.6 1679.13,1376.62 1681.15,1376.65 1683.18,1376.67 1685.21,1376.69 1687.24,1376.72 1689.27,1376.74 1691.3,1376.76 1693.33,1376.79 1695.36,1376.81 1697.39,1376.84 1699.42,1376.86 1701.45,1376.88 1703.48,1376.91 1705.5,1376.93 1707.53,1376.95 1709.56,1376.98 1711.59,1377 1713.62,1377.02 1715.65,1377.05 1717.68,1377.07 1719.71,1377.1 1721.74,1377.12 1723.77,1377.14 1725.8,1377.17 1727.83,1377.19 1729.85,1377.21 1731.88,1377.24 1733.91,1377.26 1735.94,1377.29 1737.97,1377.31 1740,1377.33 1742.03,1377.36 1744.06,1377.38 1746.09,1377.41 1748.12,1377.43 1750.15,1377.45 1752.18,1377.48 1754.21,1377.5 1756.23,1377.52 1758.26,1377.55 1760.29,1377.57 1762.32,1377.6 1764.35,1377.62 1766.38,1377.64 1768.41,1377.67 1770.44,1377.69 1772.47,1377.72 1774.5,1377.74 1776.53,1377.76 1778.56,1377.79 1780.58,1377.81 1782.61,1377.84 1784.64,1377.86 1786.67,1377.88 1788.7,1377.91 1790.73,1377.93 1792.76,1377.96 1794.79,1377.98 1796.82,1378.01 1798.85,1378.03 1800.88,1378.05 1802.91,1378.08 1804.94,1378.1 1806.96,1378.13 1808.99,1378.15 1811.02,1378.18 1813.05,1378.2 1815.08,1378.22 1817.11,1378.25 1819.14,1378.27 1821.17,1378.3 1823.2,1378.32 1825.23,1378.35 1827.26,1378.37 1829.29,1378.39 1831.31,1378.42 1833.34,1378.44 1835.37,1378.47 1837.4,1378.49 1839.43,1378.52 1841.46,1378.54 1843.49,1378.57 1845.52,1378.59 1847.55,1378.62 1849.58,1378.64 1851.61,1378.67 1853.64,1378.69 1855.66,1378.71 1857.69,1378.74 1859.72,1378.76 1861.75,1378.79 1863.78,1378.81 1865.81,1378.84 1867.84,1378.86 1869.87,1378.89 1871.9,1378.91 1873.93,1378.94 1875.96,1378.96 1877.99,1378.99 1880.02,1379.01 1882.04,1379.04 1884.07,1379.06 1886.1,1379.09 1888.13,1379.11 1890.16,1379.14 1892.19,1379.16 1894.22,1379.19 1896.25,1379.21 1898.28,1379.24 1900.31,1379.26 1902.34,1379.29 1904.37,1379.31 1906.39,1379.34 1908.42,1379.36 1910.45,1379.39 1912.48,1379.41 1914.51,1379.44 1916.54,1379.46 1918.57,1379.49 1920.6,1379.51 1922.63,1379.54 1924.66,1379.56 1926.69,1379.59 1928.72,1379.62 1930.74,1379.64 1932.77,1379.67 1934.8,1379.69 1936.83,1379.72 1938.86,1379.74 1940.89,1379.77 1942.92,1379.79 1944.95,1379.82 1946.98,1379.84 1949.01,1379.87 1951.04,1379.9 1953.07,1379.92 1955.1,1379.95 1957.12,1379.97 1959.15,1380 1961.18,1380.02 1963.21,1380.05 1965.24,1380.07 1967.27,1380.1 1969.3,1380.13 1971.33,1380.15 1973.36,1380.18 1975.39,1380.2 1977.42,1380.23 1979.45,1380.25 1981.47,1380.28 1983.5,1380.3 1985.53,1380.33 1987.56,1380.36 1989.59,1380.38 1991.62,1380.41 1993.65,1380.43 1995.68,1380.46 1997.71,1380.49 1999.74,1380.51 2001.77,1380.54 2003.8,1380.56 2005.82,1380.59 2007.85,1380.61 2009.88,1380.64 2011.91,1380.67 2013.94,1380.69 2015.97,1380.72 2018,1380.74 2020.03,1380.77 2022.06,1380.8 2024.09,1380.82 2026.12,1380.85 2028.15,1380.87 2030.18,1380.9 2032.2,1380.93 2034.23,1380.95 2036.26,1380.98 2038.29,1381 2040.32,1381.03 2042.35,1381.05 2044.38,1381.08 2046.41,1381.11 2048.44,1381.13 2050.47,1381.16 2052.5,1381.18 2054.53,1381.21 2056.55,1381.24 2058.58,1381.26 2060.61,1381.29 2062.64,1381.32 2064.67,1381.34 2066.7,1381.37 2068.73,1381.39 2070.76,1381.42 2072.79,1381.45 2074.82,1381.47 2076.85,1381.5 2078.88,1381.52 2080.91,1381.55 2082.93,1381.58 2084.96,1381.6 2086.99,1381.63 2089.02,1381.65 2091.05,1381.68 2093.08,1381.71 2095.11,1381.73 2097.14,1381.76 2099.17,1381.78 2101.2,1381.81 2103.23,1381.84 2105.26,1381.86 2107.28,1381.89 2109.31,1381.91 2111.34,1381.94 2113.37,1381.97 2115.4,1381.99 2117.43,1382.02 2119.46,1382.05 2121.49,1382.07 2123.52,1382.1 2125.55,1382.12 2127.58,1382.15 2129.61,1382.18 2131.63,1382.2 2133.66,1382.23 2135.69,1382.25 2137.72,1382.28 2139.75,1382.31 2141.78,1382.33 2143.81,1382.36 2145.84,1382.38 2147.87,1382.41 2149.9,1382.44 2151.93,1382.46 2153.96,1382.49 2155.99,1382.51 2158.01,1382.54 2160.04,1382.57 2162.07,1382.59 2164.1,1382.62 2166.13,1382.64 2168.16,1382.67 2170.19,1382.7 2172.22,1382.72 2174.25,1382.75 2176.28,1382.77 2178.31,1382.8 2180.34,1382.83 2182.36,1382.85 2184.39,1382.88 2186.42,1382.9 2188.45,1382.93 2190.48,1382.96 2192.51,1382.98 2194.54,1383.01 2196.57,1383.03 2198.6,1383.06 2200.63,1383.09 2202.66,1383.11 2204.69,1383.14 2206.71,1383.16 2208.74,1383.19 2210.77,1383.22 2212.8,1383.24 2214.83,1383.27 2216.86,1383.29 2218.89,1383.32 2220.92,1383.34 2222.95,1383.37 2224.98,1383.4 2227.01,1383.42 2229.04,1383.45 2231.07,1383.47 2233.09,1383.5 2235.12,1383.52 2237.15,1383.55 2239.18,1383.58 2241.21,1383.6 2243.24,1383.63 2245.27,1383.65 2247.3,1383.68 2249.33,1383.7 2251.36,1383.73 2253.39,1383.75 2255.42,1383.78 2257.44,1383.81 2259.47,1383.83 2261.5,1383.86 2263.53,1383.88 2265.56,1383.91 2267.59,1383.93 2269.62,1383.96 2271.65,1383.98 2273.68,1384.01 2275.71,1384.04 2277.74,1384.06 2279.77,1384.09 2281.8,1384.11 2283.82,1384.14 2285.85,1384.16 2287.88,1384.19 2289.91,1384.21 2291.94,1384.24 "/>
<path clip-path="url(#clip890)" d="M1598.01 196.789 L2281.13 196.789 L2281.13 93.1086 L1598.01 93.1086  Z" fill="#ffffff" fill-rule="evenodd" fill-opacity="1"/>
<polyline clip-path="url(#clip890)" style="stroke:#000000; stroke-linecap:round; stroke-linejoin:round; stroke-width:4; stroke-opacity:1; fill:none" points="1598.01,196.789 2281.13,196.789 2281.13,93.1086 1598.01,93.1086 1598.01,196.789 "/>
<polyline clip-path="url(#clip890)" style="stroke:#009af9; stroke-linecap:round; stroke-linejoin:round; stroke-width:4; stroke-opacity:1; fill:none" points="1621.89,144.949 1765.14,144.949 "/>
<path clip-path="url(#clip890)" d="M1816.89 130.331 L1816.89 135.261 Q1814.52 133.062 1811.84 131.974 Q1809.18 130.886 1806.17 130.886 Q1800.24 130.886 1797.09 134.52 Q1793.95 138.132 1793.95 144.983 Q1793.95 151.812 1797.09 155.446 Q1800.24 159.057 1806.17 159.057 Q1809.18 159.057 1811.84 157.969 Q1814.52 156.881 1816.89 154.682 L1816.89 159.567 Q1814.43 161.233 1811.68 162.067 Q1808.95 162.9 1805.89 162.9 Q1798.04 162.9 1793.53 158.108 Q1789.02 153.293 1789.02 144.983 Q1789.02 136.65 1793.53 131.858 Q1798.04 127.044 1805.89 127.044 Q1808.99 127.044 1811.72 127.877 Q1814.48 128.687 1816.89 130.331 Z" fill="#000000" fill-rule="nonzero" fill-opacity="1" /><path clip-path="url(#clip890)" d="M1833.97 139.289 Q1830.54 139.289 1828.55 141.974 Q1826.56 144.636 1826.56 149.289 Q1826.56 153.942 1828.53 156.627 Q1830.52 159.289 1833.97 159.289 Q1837.37 159.289 1839.36 156.604 Q1841.35 153.918 1841.35 149.289 Q1841.35 144.682 1839.36 141.997 Q1837.37 139.289 1833.97 139.289 M1833.97 135.678 Q1839.52 135.678 1842.7 139.289 Q1845.87 142.9 1845.87 149.289 Q1845.87 155.655 1842.7 159.289 Q1839.52 162.9 1833.97 162.9 Q1828.39 162.9 1825.22 159.289 Q1822.07 155.655 1822.07 149.289 Q1822.07 142.9 1825.22 139.289 Q1828.39 135.678 1833.97 135.678 Z" fill="#000000" fill-rule="nonzero" fill-opacity="1" /><path clip-path="url(#clip890)" d="M1849.87 136.303 L1854.39 136.303 L1862.49 158.062 L1870.59 136.303 L1875.1 136.303 L1865.38 162.229 L1859.59 162.229 L1849.87 136.303 Z" fill="#000000" fill-rule="nonzero" fill-opacity="1" /><path clip-path="url(#clip890)" d="M1892.77 149.196 Q1887.6 149.196 1885.61 150.377 Q1883.62 151.557 1883.62 154.405 Q1883.62 156.673 1885.1 158.016 Q1886.61 159.335 1889.18 159.335 Q1892.72 159.335 1894.85 156.835 Q1897 154.312 1897 150.145 L1897 149.196 L1892.77 149.196 M1901.26 147.437 L1901.26 162.229 L1897 162.229 L1897 158.293 Q1895.54 160.655 1893.37 161.789 Q1891.19 162.9 1888.04 162.9 Q1884.06 162.9 1881.7 160.678 Q1879.36 158.432 1879.36 154.682 Q1879.36 150.307 1882.28 148.085 Q1885.22 145.863 1891.03 145.863 L1897 145.863 L1897 145.446 Q1897 142.507 1895.06 140.909 Q1893.14 139.289 1889.64 139.289 Q1887.42 139.289 1885.31 139.821 Q1883.21 140.354 1881.26 141.419 L1881.26 137.483 Q1883.6 136.581 1885.8 136.141 Q1888 135.678 1890.08 135.678 Q1895.71 135.678 1898.48 138.594 Q1901.26 141.511 1901.26 147.437 Z" fill="#000000" fill-rule="nonzero" fill-opacity="1" /><path clip-path="url(#clip890)" d="M1925.06 140.284 Q1924.34 139.868 1923.48 139.682 Q1922.65 139.474 1921.63 139.474 Q1918.02 139.474 1916.08 141.835 Q1914.15 144.173 1914.15 148.571 L1914.15 162.229 L1909.87 162.229 L1909.87 136.303 L1914.15 136.303 L1914.15 140.331 Q1915.5 137.969 1917.65 136.835 Q1919.8 135.678 1922.88 135.678 Q1923.32 135.678 1923.85 135.747 Q1924.39 135.794 1925.03 135.909 L1925.06 140.284 Z" fill="#000000" fill-rule="nonzero" fill-opacity="1" /><path clip-path="url(#clip890)" d="M1929.52 136.303 L1933.78 136.303 L1933.78 162.229 L1929.52 162.229 L1929.52 136.303 M1929.52 126.21 L1933.78 126.21 L1933.78 131.604 L1929.52 131.604 L1929.52 126.21 Z" fill="#000000" fill-rule="nonzero" fill-opacity="1" /><path clip-path="url(#clip890)" d="M1954.48 149.196 Q1949.32 149.196 1947.33 150.377 Q1945.33 151.557 1945.33 154.405 Q1945.33 156.673 1946.82 158.016 Q1948.32 159.335 1950.89 159.335 Q1954.43 159.335 1956.56 156.835 Q1958.71 154.312 1958.71 150.145 L1958.71 149.196 L1954.48 149.196 M1962.97 147.437 L1962.97 162.229 L1958.71 162.229 L1958.71 158.293 Q1957.26 160.655 1955.08 161.789 Q1952.9 162.9 1949.76 162.9 Q1945.77 162.9 1943.41 160.678 Q1941.08 158.432 1941.08 154.682 Q1941.08 150.307 1943.99 148.085 Q1946.93 145.863 1952.74 145.863 L1958.71 145.863 L1958.71 145.446 Q1958.71 142.507 1956.77 140.909 Q1954.85 139.289 1951.35 139.289 Q1949.13 139.289 1947.02 139.821 Q1944.92 140.354 1942.97 141.419 L1942.97 137.483 Q1945.31 136.581 1947.51 136.141 Q1949.71 135.678 1951.79 135.678 Q1957.42 135.678 1960.2 138.594 Q1962.97 141.511 1962.97 147.437 Z" fill="#000000" fill-rule="nonzero" fill-opacity="1" /><path clip-path="url(#clip890)" d="M1993.3 146.581 L1993.3 162.229 L1989.04 162.229 L1989.04 146.719 Q1989.04 143.039 1987.6 141.21 Q1986.17 139.382 1983.3 139.382 Q1979.85 139.382 1977.86 141.581 Q1975.87 143.78 1975.87 147.576 L1975.87 162.229 L1971.58 162.229 L1971.58 136.303 L1975.87 136.303 L1975.87 140.331 Q1977.39 137.993 1979.45 136.835 Q1981.54 135.678 1984.25 135.678 Q1988.71 135.678 1991.01 138.456 Q1993.3 141.21 1993.3 146.581 Z" fill="#000000" fill-rule="nonzero" fill-opacity="1" /><path clip-path="url(#clip890)" d="M2020.45 137.298 L2020.45 141.28 Q2018.64 140.284 2016.82 139.798 Q2015.01 139.289 2013.16 139.289 Q2009.01 139.289 2006.72 141.928 Q2004.43 144.544 2004.43 149.289 Q2004.43 154.034 2006.72 156.673 Q2009.01 159.289 2013.16 159.289 Q2015.01 159.289 2016.82 158.803 Q2018.64 158.293 2020.45 157.298 L2020.45 161.233 Q2018.67 162.067 2016.75 162.483 Q2014.85 162.9 2012.7 162.9 Q2006.84 162.9 2003.39 159.219 Q1999.94 155.539 1999.94 149.289 Q1999.94 142.946 2003.41 139.312 Q2006.91 135.678 2012.97 135.678 Q2014.94 135.678 2016.82 136.095 Q2018.69 136.488 2020.45 137.298 Z" fill="#000000" fill-rule="nonzero" fill-opacity="1" /><path clip-path="url(#clip890)" d="M2050.03 148.201 L2050.03 150.284 L2030.45 150.284 Q2030.73 154.682 2033.09 156.997 Q2035.47 159.289 2039.71 159.289 Q2042.16 159.289 2044.45 158.687 Q2046.77 158.085 2049.04 156.881 L2049.04 160.909 Q2046.75 161.881 2044.34 162.391 Q2041.93 162.9 2039.45 162.9 Q2033.25 162.9 2029.62 159.289 Q2026.01 155.678 2026.01 149.52 Q2026.01 143.155 2029.43 139.428 Q2032.88 135.678 2038.71 135.678 Q2043.94 135.678 2046.98 139.057 Q2050.03 142.414 2050.03 148.201 M2045.77 146.951 Q2045.73 143.456 2043.81 141.372 Q2041.91 139.289 2038.76 139.289 Q2035.2 139.289 2033.04 141.303 Q2030.91 143.317 2030.59 146.974 L2045.77 146.951 Z" fill="#000000" fill-rule="nonzero" fill-opacity="1" /><path clip-path="url(#clip890)" d="M2085.22 126.21 L2085.22 129.752 L2081.14 129.752 Q2078.85 129.752 2077.95 130.678 Q2077.07 131.604 2077.07 134.011 L2077.07 136.303 L2084.08 136.303 L2084.08 139.613 L2077.07 139.613 L2077.07 162.229 L2072.79 162.229 L2072.79 139.613 L2068.71 139.613 L2068.71 136.303 L2072.79 136.303 L2072.79 134.497 Q2072.79 130.169 2074.8 128.201 Q2076.82 126.21 2081.19 126.21 L2085.22 126.21 Z" fill="#000000" fill-rule="nonzero" fill-opacity="1" /><path clip-path="url(#clip890)" d="M2088.34 151.997 L2088.34 136.303 L2092.6 136.303 L2092.6 151.835 Q2092.6 155.516 2094.04 157.368 Q2095.47 159.196 2098.34 159.196 Q2101.79 159.196 2103.78 156.997 Q2105.8 154.798 2105.8 151.002 L2105.8 136.303 L2110.06 136.303 L2110.06 162.229 L2105.8 162.229 L2105.8 158.247 Q2104.25 160.608 2102.19 161.766 Q2100.15 162.9 2097.44 162.9 Q2092.97 162.9 2090.66 160.122 Q2088.34 157.344 2088.34 151.997 M2099.06 135.678 L2099.06 135.678 Z" fill="#000000" fill-rule="nonzero" fill-opacity="1" /><path clip-path="url(#clip890)" d="M2140.38 146.581 L2140.38 162.229 L2136.12 162.229 L2136.12 146.719 Q2136.12 143.039 2134.69 141.21 Q2133.25 139.382 2130.38 139.382 Q2126.93 139.382 2124.94 141.581 Q2122.95 143.78 2122.95 147.576 L2122.95 162.229 L2118.67 162.229 L2118.67 136.303 L2122.95 136.303 L2122.95 140.331 Q2124.48 137.993 2126.54 136.835 Q2128.62 135.678 2131.33 135.678 Q2135.8 135.678 2138.09 138.456 Q2140.38 141.21 2140.38 146.581 Z" fill="#000000" fill-rule="nonzero" fill-opacity="1" /><path clip-path="url(#clip890)" d="M2167.53 137.298 L2167.53 141.28 Q2165.73 140.284 2163.9 139.798 Q2162.09 139.289 2160.24 139.289 Q2156.1 139.289 2153.81 141.928 Q2151.51 144.544 2151.51 149.289 Q2151.51 154.034 2153.81 156.673 Q2156.1 159.289 2160.24 159.289 Q2162.09 159.289 2163.9 158.803 Q2165.73 158.293 2167.53 157.298 L2167.53 161.233 Q2165.75 162.067 2163.83 162.483 Q2161.93 162.9 2159.78 162.9 Q2153.92 162.9 2150.47 159.219 Q2147.02 155.539 2147.02 149.289 Q2147.02 142.946 2150.5 139.312 Q2153.99 135.678 2160.06 135.678 Q2162.02 135.678 2163.9 136.095 Q2165.77 136.488 2167.53 137.298 Z" fill="#000000" fill-rule="nonzero" fill-opacity="1" /><path clip-path="url(#clip890)" d="M2179.15 128.942 L2179.15 136.303 L2187.93 136.303 L2187.93 139.613 L2179.15 139.613 L2179.15 153.687 Q2179.15 156.858 2180.01 157.761 Q2180.89 158.664 2183.55 158.664 L2187.93 158.664 L2187.93 162.229 L2183.55 162.229 Q2178.62 162.229 2176.75 160.4 Q2174.87 158.548 2174.87 153.687 L2174.87 139.613 L2171.75 139.613 L2171.75 136.303 L2174.87 136.303 L2174.87 128.942 L2179.15 128.942 Z" fill="#000000" fill-rule="nonzero" fill-opacity="1" /><path clip-path="url(#clip890)" d="M2193.53 136.303 L2197.79 136.303 L2197.79 162.229 L2193.53 162.229 L2193.53 136.303 M2193.53 126.21 L2197.79 126.21 L2197.79 131.604 L2193.53 131.604 L2193.53 126.21 Z" fill="#000000" fill-rule="nonzero" fill-opacity="1" /><path clip-path="url(#clip890)" d="M2216.74 139.289 Q2213.32 139.289 2211.33 141.974 Q2209.34 144.636 2209.34 149.289 Q2209.34 153.942 2211.31 156.627 Q2213.3 159.289 2216.74 159.289 Q2220.15 159.289 2222.14 156.604 Q2224.13 153.918 2224.13 149.289 Q2224.13 144.682 2222.14 141.997 Q2220.15 139.289 2216.74 139.289 M2216.74 135.678 Q2222.3 135.678 2225.47 139.289 Q2228.64 142.9 2228.64 149.289 Q2228.64 155.655 2225.47 159.289 Q2222.3 162.9 2216.74 162.9 Q2211.17 162.9 2208 159.289 Q2204.85 155.655 2204.85 149.289 Q2204.85 142.9 2208 139.289 Q2211.17 135.678 2216.74 135.678 Z" fill="#000000" fill-rule="nonzero" fill-opacity="1" /><path clip-path="url(#clip890)" d="M2257.25 146.581 L2257.25 162.229 L2252.99 162.229 L2252.99 146.719 Q2252.99 143.039 2251.56 141.21 Q2250.12 139.382 2247.25 139.382 Q2243.81 139.382 2241.81 141.581 Q2239.82 143.78 2239.82 147.576 L2239.82 162.229 L2235.54 162.229 L2235.54 136.303 L2239.82 136.303 L2239.82 140.331 Q2241.35 137.993 2243.41 136.835 Q2245.49 135.678 2248.2 135.678 Q2252.67 135.678 2254.96 138.456 Q2257.25 141.21 2257.25 146.581 Z" fill="#000000" fill-rule="nonzero" fill-opacity="1" /></svg>
