<?xml version="1.0" encoding="utf-8"?>
<svg xmlns="http://www.w3.org/2000/svg" xmlns:xlink="http://www.w3.org/1999/xlink" width="600" height="400" viewBox="0 0 2400 1600">
<defs>
  <clipPath id="clip240">
    <rect x="0" y="0" width="2400" height="1600"/>
  </clipPath>
</defs>
<path clip-path="url(#clip240)" d="M0 1600 L2400 1600 L2400 0 L0 0  Z" fill="#ffffff" fill-rule="evenodd" fill-opacity="1"/>
<defs>
  <clipPath id="clip241">
    <rect x="480" y="0" width="1681" height="1600"/>
  </clipPath>
</defs>
<path clip-path="url(#clip240)" d="M276.876 1410.9 L2352.76 1410.9 L2352.76 47.2441 L276.876 47.2441  Z" fill="#ffffff" fill-rule="evenodd" fill-opacity="1"/>
<defs>
  <clipPath id="clip242">
    <rect x="276" y="47" width="2077" height="1365"/>
  </clipPath>
</defs>
<polyline clip-path="url(#clip242)" style="stroke:#000000; stroke-linecap:round; stroke-linejoin:round; stroke-width:2; stroke-opacity:0.1; fill:none" points="662.023,1410.9 662.023,47.2441 "/>
<polyline clip-path="url(#clip242)" style="stroke:#000000; stroke-linecap:round; stroke-linejoin:round; stroke-width:2; stroke-opacity:0.1; fill:none" points="1314.82,1410.9 1314.82,47.2441 "/>
<polyline clip-path="url(#clip242)" style="stroke:#000000; stroke-linecap:round; stroke-linejoin:round; stroke-width:2; stroke-opacity:0.1; fill:none" points="1967.61,1410.9 1967.61,47.2441 "/>
<polyline clip-path="url(#clip242)" style="stroke:#000000; stroke-linecap:round; stroke-linejoin:round; stroke-width:2; stroke-opacity:0.1; fill:none" points="662.023,1410.9 662.023,47.2441 "/>
<polyline clip-path="url(#clip242)" style="stroke:#000000; stroke-linecap:round; stroke-linejoin:round; stroke-width:2; stroke-opacity:0.1; fill:none" points="1314.82,1410.9 1314.82,47.2441 "/>
<polyline clip-path="url(#clip242)" style="stroke:#000000; stroke-linecap:round; stroke-linejoin:round; stroke-width:2; stroke-opacity:0.1; fill:none" points="1967.61,1410.9 1967.61,47.2441 "/>
<polyline clip-path="url(#clip240)" style="stroke:#000000; stroke-linecap:round; stroke-linejoin:round; stroke-width:4; stroke-opacity:1; fill:none" points="276.876,1410.9 2352.76,1410.9 "/>
<polyline clip-path="url(#clip240)" style="stroke:#000000; stroke-linecap:round; stroke-linejoin:round; stroke-width:4; stroke-opacity:1; fill:none" points="276.876,47.2441 2352.76,47.2441 "/>
<polyline clip-path="url(#clip240)" style="stroke:#000000; stroke-linecap:round; stroke-linejoin:round; stroke-width:4; stroke-opacity:1; fill:none" points="662.023,1410.9 662.023,1392 "/>
<polyline clip-path="url(#clip240)" style="stroke:#000000; stroke-linecap:round; stroke-linejoin:round; stroke-width:4; stroke-opacity:1; fill:none" points="1314.82,1410.9 1314.82,1392 "/>
<polyline clip-path="url(#clip240)" style="stroke:#000000; stroke-linecap:round; stroke-linejoin:round; stroke-width:4; stroke-opacity:1; fill:none" points="1967.61,1410.9 1967.61,1392 "/>
<polyline clip-path="url(#clip240)" style="stroke:#000000; stroke-linecap:round; stroke-linejoin:round; stroke-width:4; stroke-opacity:1; fill:none" points="662.023,47.2441 662.023,66.1417 "/>
<polyline clip-path="url(#clip240)" style="stroke:#000000; stroke-linecap:round; stroke-linejoin:round; stroke-width:4; stroke-opacity:1; fill:none" points="1314.82,47.2441 1314.82,66.1417 "/>
<polyline clip-path="url(#clip240)" style="stroke:#000000; stroke-linecap:round; stroke-linejoin:round; stroke-width:4; stroke-opacity:1; fill:none" points="1967.61,47.2441 1967.61,66.1417 "/>
<path clip-path="url(#clip240)" d="M612.289 1485.02 L619.928 1485.02 L619.928 1458.66 L611.618 1460.32 L611.618 1456.06 L619.881 1454.4 L624.557 1454.4 L624.557 1485.02 L632.196 1485.02 L632.196 1488.96 L612.289 1488.96 L612.289 1485.02 Z" fill="#000000" fill-rule="nonzero" fill-opacity="1" /><path clip-path="url(#clip240)" d="M651.641 1457.48 Q648.029 1457.48 646.201 1461.04 Q644.395 1464.58 644.395 1471.71 Q644.395 1478.82 646.201 1482.38 Q648.029 1485.92 651.641 1485.92 Q655.275 1485.92 657.08 1482.38 Q658.909 1478.82 658.909 1471.71 Q658.909 1464.58 657.08 1461.04 Q655.275 1457.48 651.641 1457.48 M651.641 1453.77 Q657.451 1453.77 660.506 1458.38 Q663.585 1462.96 663.585 1471.71 Q663.585 1480.44 660.506 1485.04 Q657.451 1489.63 651.641 1489.63 Q645.83 1489.63 642.752 1485.04 Q639.696 1480.44 639.696 1471.71 Q639.696 1462.96 642.752 1458.38 Q645.83 1453.77 651.641 1453.77 Z" fill="#000000" fill-rule="nonzero" fill-opacity="1" /><path clip-path="url(#clip240)" d="M663.585 1447.87 L687.696 1447.87 L687.696 1451.07 L663.585 1451.07 L663.585 1447.87 Z" fill="#000000" fill-rule="nonzero" fill-opacity="1" /><path clip-path="url(#clip240)" d="M699.169 1458.35 L712.429 1458.35 L712.429 1461.55 L694.599 1461.55 L694.599 1458.35 Q696.762 1456.11 700.486 1452.35 Q704.228 1448.57 705.188 1447.48 Q707.012 1445.43 707.727 1444.02 Q708.46 1442.59 708.46 1441.22 Q708.46 1438.98 706.88 1437.57 Q705.319 1436.16 702.799 1436.16 Q701.012 1436.16 699.019 1436.78 Q697.044 1437.4 694.787 1438.66 L694.787 1434.82 Q697.082 1433.9 699.075 1433.43 Q701.069 1432.96 702.724 1432.96 Q707.087 1432.96 709.683 1435.14 Q712.278 1437.32 712.278 1440.97 Q712.278 1442.7 711.62 1444.26 Q710.98 1445.8 709.269 1447.91 Q708.799 1448.46 706.279 1451.07 Q703.758 1453.67 699.169 1458.35 Z" fill="#000000" fill-rule="nonzero" fill-opacity="1" /><path clip-path="url(#clip240)" d="M1279.8 1485.02 L1287.44 1485.02 L1287.44 1458.66 L1279.13 1460.32 L1279.13 1456.06 L1287.39 1454.4 L1292.07 1454.4 L1292.07 1485.02 L1299.71 1485.02 L1299.71 1488.96 L1279.8 1488.96 L1279.8 1485.02 Z" fill="#000000" fill-rule="nonzero" fill-opacity="1" /><path clip-path="url(#clip240)" d="M1319.15 1457.48 Q1315.54 1457.48 1313.71 1461.04 Q1311.9 1464.58 1311.9 1471.71 Q1311.9 1478.82 1313.71 1482.38 Q1315.54 1485.92 1319.15 1485.92 Q1322.78 1485.92 1324.59 1482.38 Q1326.42 1478.82 1326.42 1471.71 Q1326.42 1464.58 1324.59 1461.04 Q1322.78 1457.48 1319.15 1457.48 M1319.15 1453.77 Q1324.96 1453.77 1328.02 1458.38 Q1331.09 1462.96 1331.09 1471.71 Q1331.09 1480.44 1328.02 1485.04 Q1324.96 1489.63 1319.15 1489.63 Q1313.34 1489.63 1310.26 1485.04 Q1307.21 1480.44 1307.21 1471.71 Q1307.21 1462.96 1310.26 1458.38 Q1313.34 1453.77 1319.15 1453.77 Z" fill="#000000" fill-rule="nonzero" fill-opacity="1" /><path clip-path="url(#clip240)" d="M1340.8 1435.97 Q1337.87 1435.97 1336.38 1438.86 Q1334.91 1441.74 1334.91 1447.53 Q1334.91 1453.31 1336.38 1456.2 Q1337.87 1459.08 1340.8 1459.08 Q1343.75 1459.08 1345.22 1456.2 Q1346.71 1453.31 1346.71 1447.53 Q1346.71 1441.74 1345.22 1438.86 Q1343.75 1435.97 1340.8 1435.97 M1340.8 1432.96 Q1345.52 1432.96 1348 1436.7 Q1350.5 1440.43 1350.5 1447.53 Q1350.5 1454.62 1348 1458.37 Q1345.52 1462.09 1340.8 1462.09 Q1336.08 1462.09 1333.58 1458.37 Q1331.09 1454.62 1331.09 1447.53 Q1331.09 1440.43 1333.58 1436.7 Q1336.08 1432.96 1340.8 1432.96 Z" fill="#000000" fill-rule="nonzero" fill-opacity="1" /><path clip-path="url(#clip240)" d="M1933.38 1485.02 L1941.02 1485.02 L1941.02 1458.66 L1932.71 1460.32 L1932.71 1456.06 L1940.97 1454.4 L1945.65 1454.4 L1945.65 1485.02 L1953.29 1485.02 L1953.29 1488.96 L1933.38 1488.96 L1933.38 1485.02 Z" fill="#000000" fill-rule="nonzero" fill-opacity="1" /><path clip-path="url(#clip240)" d="M1972.73 1457.48 Q1969.12 1457.48 1967.29 1461.04 Q1965.49 1464.58 1965.49 1471.71 Q1965.49 1478.82 1967.29 1482.38 Q1969.12 1485.92 1972.73 1485.92 Q1976.37 1485.92 1978.17 1482.38 Q1980 1478.82 1980 1471.71 Q1980 1464.58 1978.17 1461.04 Q1976.37 1457.48 1972.73 1457.48 M1972.73 1453.77 Q1978.54 1453.77 1981.6 1458.38 Q1984.68 1462.96 1984.68 1471.71 Q1984.68 1480.44 1981.6 1485.04 Q1978.54 1489.63 1972.73 1489.63 Q1966.92 1489.63 1963.84 1485.04 Q1960.79 1480.44 1960.79 1471.71 Q1960.79 1462.96 1963.84 1458.38 Q1966.92 1453.77 1972.73 1453.77 Z" fill="#000000" fill-rule="nonzero" fill-opacity="1" /><path clip-path="url(#clip240)" d="M1989.25 1458.35 L2002.51 1458.35 L2002.51 1461.55 L1984.68 1461.55 L1984.68 1458.35 Q1986.84 1456.11 1990.56 1452.35 Q1994.31 1448.57 1995.27 1447.48 Q1997.09 1445.43 1997.8 1444.02 Q1998.54 1442.59 1998.54 1441.22 Q1998.54 1438.98 1996.96 1437.57 Q1995.4 1436.16 1992.88 1436.16 Q1991.09 1436.16 1989.1 1436.78 Q1987.12 1437.4 1984.87 1438.66 L1984.87 1434.82 Q1987.16 1433.9 1989.15 1433.43 Q1991.15 1432.96 1992.8 1432.96 Q1997.17 1432.96 1999.76 1435.14 Q2002.36 1437.32 2002.36 1440.97 Q2002.36 1442.7 2001.7 1444.26 Q2001.06 1445.8 1999.35 1447.91 Q1998.88 1448.46 1996.36 1451.07 Q1993.84 1453.67 1989.25 1458.35 Z" fill="#000000" fill-rule="nonzero" fill-opacity="1" /><path clip-path="url(#clip240)" d="M996.896 1526.67 L1024.21 1526.67 L1024.21 1532.08 L1003.33 1532.08 L1003.33 1546.08 L1022.17 1546.08 L1022.17 1551.49 L1003.33 1551.49 L1003.33 1574.19 L996.896 1574.19 L996.896 1526.67 Z" fill="#000000" fill-rule="nonzero" fill-opacity="1" /><path clip-path="url(#clip240)" d="M1050.05 1544.01 Q1049.06 1543.44 1047.89 1543.18 Q1046.74 1542.9 1045.34 1542.9 Q1040.37 1542.9 1037.7 1546.14 Q1035.06 1549.36 1035.06 1555.41 L1035.06 1574.19 L1029.17 1574.19 L1029.17 1538.54 L1035.06 1538.54 L1035.06 1544.08 Q1036.9 1540.83 1039.86 1539.27 Q1042.82 1537.68 1047.06 1537.68 Q1047.66 1537.68 1048.39 1537.77 Q1049.13 1537.84 1050.02 1538 L1050.05 1544.01 Z" fill="#000000" fill-rule="nonzero" fill-opacity="1" /><path clip-path="url(#clip240)" d="M1085.25 1554.9 L1085.25 1557.76 L1058.33 1557.76 Q1058.71 1563.81 1061.95 1566.99 Q1065.23 1570.14 1071.06 1570.14 Q1074.43 1570.14 1077.58 1569.32 Q1080.76 1568.49 1083.88 1566.83 L1083.88 1572.37 Q1080.73 1573.71 1077.42 1574.41 Q1074.11 1575.11 1070.71 1575.11 Q1062.18 1575.11 1057.18 1570.14 Q1052.21 1565.18 1052.21 1556.71 Q1052.21 1547.96 1056.93 1542.83 Q1061.67 1537.68 1069.69 1537.68 Q1076.88 1537.68 1081.05 1542.33 Q1085.25 1546.94 1085.25 1554.9 M1079.4 1553.18 Q1079.33 1548.37 1076.69 1545.51 Q1074.08 1542.64 1069.75 1542.64 Q1064.85 1542.64 1061.89 1545.41 Q1058.96 1548.18 1058.52 1553.21 L1079.4 1553.18 Z" fill="#000000" fill-rule="nonzero" fill-opacity="1" /><path clip-path="url(#clip240)" d="M1098.37 1556.39 Q1098.37 1562.85 1101.01 1566.55 Q1103.68 1570.21 1108.33 1570.21 Q1112.98 1570.21 1115.65 1566.55 Q1118.32 1562.85 1118.32 1556.39 Q1118.32 1549.93 1115.65 1546.27 Q1112.98 1542.58 1108.33 1542.58 Q1103.68 1542.58 1101.01 1546.27 Q1098.37 1549.93 1098.37 1556.39 M1118.32 1568.84 Q1116.48 1572.02 1113.64 1573.58 Q1110.84 1575.11 1106.9 1575.11 Q1100.43 1575.11 1096.36 1569.95 Q1092.32 1564.8 1092.32 1556.39 Q1092.32 1547.99 1096.36 1542.83 Q1100.43 1537.68 1106.9 1537.68 Q1110.84 1537.68 1113.64 1539.24 Q1116.48 1540.77 1118.32 1543.95 L1118.32 1538.54 L1124.18 1538.54 L1124.18 1587.74 L1118.32 1587.74 L1118.32 1568.84 Z" fill="#000000" fill-rule="nonzero" fill-opacity="1" /><path clip-path="url(#clip240)" d="M1135.64 1560.12 L1135.64 1538.54 L1141.49 1538.54 L1141.49 1559.89 Q1141.49 1564.96 1143.47 1567.5 Q1145.44 1570.02 1149.39 1570.02 Q1154.13 1570.02 1156.87 1566.99 Q1159.64 1563.97 1159.64 1558.75 L1159.64 1538.54 L1165.49 1538.54 L1165.49 1574.19 L1159.64 1574.19 L1159.64 1568.71 Q1157.5 1571.96 1154.67 1573.55 Q1151.87 1575.11 1148.15 1575.11 Q1142 1575.11 1138.82 1571.29 Q1135.64 1567.47 1135.64 1560.12 M1150.37 1537.68 L1150.37 1537.68 Z" fill="#000000" fill-rule="nonzero" fill-opacity="1" /><path clip-path="url(#clip240)" d="M1208.05 1554.9 L1208.05 1557.76 L1181.12 1557.76 Q1181.5 1563.81 1184.75 1566.99 Q1188.03 1570.14 1193.85 1570.14 Q1197.23 1570.14 1200.38 1569.32 Q1203.56 1568.49 1206.68 1566.83 L1206.68 1572.37 Q1203.53 1573.71 1200.22 1574.41 Q1196.91 1575.11 1193.5 1575.11 Q1184.97 1575.11 1179.97 1570.14 Q1175.01 1565.18 1175.01 1556.71 Q1175.01 1547.96 1179.72 1542.83 Q1184.46 1537.68 1192.48 1537.68 Q1199.68 1537.68 1203.85 1542.33 Q1208.05 1546.94 1208.05 1554.9 M1202.19 1553.18 Q1202.13 1548.37 1199.49 1545.51 Q1196.88 1542.64 1192.55 1542.64 Q1187.64 1542.64 1184.68 1545.41 Q1181.76 1548.18 1181.31 1553.21 L1202.19 1553.18 Z" fill="#000000" fill-rule="nonzero" fill-opacity="1" /><path clip-path="url(#clip240)" d="M1247.29 1552.67 L1247.29 1574.19 L1241.44 1574.19 L1241.44 1552.86 Q1241.44 1547.8 1239.46 1545.29 Q1237.49 1542.77 1233.54 1542.77 Q1228.8 1542.77 1226.06 1545.79 Q1223.32 1548.82 1223.32 1554.04 L1223.32 1574.19 L1217.44 1574.19 L1217.44 1538.54 L1223.32 1538.54 L1223.32 1544.08 Q1225.43 1540.86 1228.26 1539.27 Q1231.12 1537.68 1234.85 1537.68 Q1240.99 1537.68 1244.14 1541.5 Q1247.29 1545.29 1247.29 1552.67 Z" fill="#000000" fill-rule="nonzero" fill-opacity="1" /><path clip-path="url(#clip240)" d="M1284.63 1539.91 L1284.63 1545.38 Q1282.14 1544.01 1279.63 1543.34 Q1277.15 1542.64 1274.6 1542.64 Q1268.9 1542.64 1265.75 1546.27 Q1262.6 1549.87 1262.6 1556.39 Q1262.6 1562.92 1265.75 1566.55 Q1268.9 1570.14 1274.6 1570.14 Q1277.15 1570.14 1279.63 1569.47 Q1282.14 1568.77 1284.63 1567.41 L1284.63 1572.82 Q1282.18 1573.96 1279.53 1574.54 Q1276.92 1575.11 1273.96 1575.11 Q1265.91 1575.11 1261.17 1570.05 Q1256.43 1564.99 1256.43 1556.39 Q1256.43 1547.67 1261.2 1542.68 Q1266.01 1537.68 1274.35 1537.68 Q1277.05 1537.68 1279.63 1538.25 Q1282.21 1538.79 1284.63 1539.91 Z" fill="#000000" fill-rule="nonzero" fill-opacity="1" /><path clip-path="url(#clip240)" d="M1309.64 1577.5 Q1307.16 1583.86 1304.81 1585.8 Q1302.45 1587.74 1298.5 1587.74 L1293.82 1587.74 L1293.82 1582.84 L1297.26 1582.84 Q1299.68 1582.84 1301.02 1581.7 Q1302.35 1580.55 1303.98 1576.29 L1305.03 1573.61 L1290.61 1538.54 L1296.82 1538.54 L1307.96 1566.42 L1319.1 1538.54 L1325.3 1538.54 L1309.64 1577.5 Z" fill="#000000" fill-rule="nonzero" fill-opacity="1" /><path clip-path="url(#clip240)" d="M1368.18 1524.72 Q1363.91 1532.04 1361.84 1539.21 Q1359.77 1546.37 1359.77 1553.72 Q1359.77 1561.07 1361.84 1568.3 Q1363.94 1575.49 1368.18 1582.78 L1363.08 1582.78 Q1358.31 1575.3 1355.92 1568.07 Q1353.57 1560.85 1353.57 1553.72 Q1353.57 1546.62 1355.92 1539.43 Q1358.28 1532.24 1363.08 1524.72 L1368.18 1524.72 Z" fill="#000000" fill-rule="nonzero" fill-opacity="1" /><path clip-path="url(#clip240)" d="M1403 1543.95 L1403 1524.66 L1408.85 1524.66 L1408.85 1574.19 L1403 1574.19 L1403 1568.84 Q1401.15 1572.02 1398.32 1573.58 Q1395.52 1575.11 1391.57 1575.11 Q1385.11 1575.11 1381.03 1569.95 Q1376.99 1564.8 1376.99 1556.39 Q1376.99 1547.99 1381.03 1542.83 Q1385.11 1537.68 1391.57 1537.68 Q1395.52 1537.68 1398.32 1539.24 Q1401.15 1540.77 1403 1543.95 M1383.04 1556.39 Q1383.04 1562.85 1385.68 1566.55 Q1388.36 1570.21 1393 1570.21 Q1397.65 1570.21 1400.32 1566.55 Q1403 1562.85 1403 1556.39 Q1403 1549.93 1400.32 1546.27 Q1397.65 1542.58 1393 1542.58 Q1388.36 1542.58 1385.68 1546.27 Q1383.04 1549.93 1383.04 1556.39 Z" fill="#000000" fill-rule="nonzero" fill-opacity="1" /><path clip-path="url(#clip240)" d="M1437.12 1556.27 Q1430.02 1556.27 1427.28 1557.89 Q1424.54 1559.51 1424.54 1563.43 Q1424.54 1566.55 1426.58 1568.39 Q1428.65 1570.21 1432.18 1570.21 Q1437.05 1570.21 1439.98 1566.77 Q1442.94 1563.3 1442.94 1557.57 L1442.94 1556.27 L1437.12 1556.27 M1448.8 1553.85 L1448.8 1574.19 L1442.94 1574.19 L1442.94 1568.77 Q1440.94 1572.02 1437.94 1573.58 Q1434.95 1575.11 1430.62 1575.11 Q1425.15 1575.11 1421.9 1572.05 Q1418.69 1568.97 1418.69 1563.81 Q1418.69 1557.79 1422.7 1554.74 Q1426.74 1551.68 1434.73 1551.68 L1442.94 1551.68 L1442.94 1551.11 Q1442.94 1547.07 1440.27 1544.87 Q1437.63 1542.64 1432.82 1542.64 Q1429.76 1542.64 1426.87 1543.38 Q1423.97 1544.11 1421.3 1545.57 L1421.3 1540.16 Q1424.51 1538.92 1427.54 1538.31 Q1430.56 1537.68 1433.42 1537.68 Q1441.16 1537.68 1444.98 1541.69 Q1448.8 1545.7 1448.8 1553.85 Z" fill="#000000" fill-rule="nonzero" fill-opacity="1" /><path clip-path="url(#clip240)" d="M1475.69 1577.5 Q1473.21 1583.86 1470.86 1585.8 Q1468.5 1587.74 1464.55 1587.74 L1459.87 1587.74 L1459.87 1582.84 L1463.31 1582.84 Q1465.73 1582.84 1467.07 1581.7 Q1468.4 1580.55 1470.03 1576.29 L1471.08 1573.61 L1456.66 1538.54 L1462.87 1538.54 L1474.01 1566.42 L1485.15 1538.54 L1491.35 1538.54 L1475.69 1577.5 Z" fill="#000000" fill-rule="nonzero" fill-opacity="1" /><path clip-path="url(#clip240)" d="M1523.72 1526.67 L1541.01 1544.39 L1534.61 1544.39 L1520.6 1531.82 L1506.6 1544.39 L1500.2 1544.39 L1517.48 1526.67 L1523.72 1526.67 Z" fill="#000000" fill-rule="nonzero" fill-opacity="1" /><path clip-path="url(#clip240)" d="M1551.09 1553.72 L1568.25 1553.72 L1568.25 1558.94 L1551.09 1558.94 L1551.09 1553.72 Z" fill="#000000" fill-rule="nonzero" fill-opacity="1" /><path clip-path="url(#clip240)" d="M1579.52 1568.77 L1590.02 1568.77 L1590.02 1532.52 L1578.59 1534.81 L1578.59 1528.96 L1589.96 1526.67 L1596.39 1526.67 L1596.39 1568.77 L1606.89 1568.77 L1606.89 1574.19 L1579.52 1574.19 L1579.52 1568.77 Z" fill="#000000" fill-rule="nonzero" fill-opacity="1" /><path clip-path="url(#clip240)" d="M1618.13 1524.72 L1623.22 1524.72 Q1627.99 1532.24 1630.35 1539.43 Q1632.74 1546.62 1632.74 1553.72 Q1632.74 1560.85 1630.35 1568.07 Q1627.99 1575.3 1623.22 1582.78 L1618.13 1582.78 Q1622.36 1575.49 1624.43 1568.3 Q1626.53 1561.07 1626.53 1553.72 Q1626.53 1546.37 1624.43 1539.21 Q1622.36 1532.04 1618.13 1524.72 Z" fill="#000000" fill-rule="nonzero" fill-opacity="1" /><polyline clip-path="url(#clip242)" style="stroke:#000000; stroke-linecap:round; stroke-linejoin:round; stroke-width:2; stroke-opacity:0.1; fill:none" points="276.876,986.509 2352.76,986.509 "/>
<polyline clip-path="url(#clip242)" style="stroke:#000000; stroke-linecap:round; stroke-linejoin:round; stroke-width:2; stroke-opacity:0.1; fill:none" points="276.876,555.282 2352.76,555.282 "/>
<polyline clip-path="url(#clip242)" style="stroke:#000000; stroke-linecap:round; stroke-linejoin:round; stroke-width:2; stroke-opacity:0.1; fill:none" points="276.876,124.055 2352.76,124.055 "/>
<polyline clip-path="url(#clip242)" style="stroke:#000000; stroke-linecap:round; stroke-linejoin:round; stroke-width:2; stroke-opacity:0.1; fill:none" points="276.876,986.509 2352.76,986.509 "/>
<polyline clip-path="url(#clip242)" style="stroke:#000000; stroke-linecap:round; stroke-linejoin:round; stroke-width:2; stroke-opacity:0.1; fill:none" points="276.876,555.282 2352.76,555.282 "/>
<polyline clip-path="url(#clip242)" style="stroke:#000000; stroke-linecap:round; stroke-linejoin:round; stroke-width:2; stroke-opacity:0.1; fill:none" points="276.876,124.055 2352.76,124.055 "/>
<polyline clip-path="url(#clip240)" style="stroke:#000000; stroke-linecap:round; stroke-linejoin:round; stroke-width:4; stroke-opacity:1; fill:none" points="276.876,1410.9 276.876,47.2441 "/>
<polyline clip-path="url(#clip240)" style="stroke:#000000; stroke-linecap:round; stroke-linejoin:round; stroke-width:4; stroke-opacity:1; fill:none" points="2352.76,1410.9 2352.76,47.2441 "/>
<polyline clip-path="url(#clip240)" style="stroke:#000000; stroke-linecap:round; stroke-linejoin:round; stroke-width:4; stroke-opacity:1; fill:none" points="276.876,986.509 295.773,986.509 "/>
<polyline clip-path="url(#clip240)" style="stroke:#000000; stroke-linecap:round; stroke-linejoin:round; stroke-width:4; stroke-opacity:1; fill:none" points="276.876,555.282 295.773,555.282 "/>
<polyline clip-path="url(#clip240)" style="stroke:#000000; stroke-linecap:round; stroke-linejoin:round; stroke-width:4; stroke-opacity:1; fill:none" points="276.876,124.055 295.773,124.055 "/>
<polyline clip-path="url(#clip240)" style="stroke:#000000; stroke-linecap:round; stroke-linejoin:round; stroke-width:4; stroke-opacity:1; fill:none" points="2352.76,986.509 2333.86,986.509 "/>
<polyline clip-path="url(#clip240)" style="stroke:#000000; stroke-linecap:round; stroke-linejoin:round; stroke-width:4; stroke-opacity:1; fill:none" points="2352.76,555.282 2333.86,555.282 "/>
<polyline clip-path="url(#clip240)" style="stroke:#000000; stroke-linecap:round; stroke-linejoin:round; stroke-width:4; stroke-opacity:1; fill:none" points="2352.76,124.055 2333.86,124.055 "/>
<path clip-path="url(#clip240)" d="M114.931 1006.3 L122.57 1006.3 L122.57 979.936 L114.26 981.602 L114.26 977.343 L122.524 975.676 L127.2 975.676 L127.2 1006.3 L134.839 1006.3 L134.839 1010.24 L114.931 1010.24 L114.931 1006.3 Z" fill="#000000" fill-rule="nonzero" fill-opacity="1" /><path clip-path="url(#clip240)" d="M154.283 978.755 Q150.672 978.755 148.843 982.32 Q147.038 985.861 147.038 992.991 Q147.038 1000.1 148.843 1003.66 Q150.672 1007.2 154.283 1007.2 Q157.917 1007.2 159.723 1003.66 Q161.552 1000.1 161.552 992.991 Q161.552 985.861 159.723 982.32 Q157.917 978.755 154.283 978.755 M154.283 975.051 Q160.093 975.051 163.149 979.658 Q166.227 984.241 166.227 992.991 Q166.227 1001.72 163.149 1006.32 Q160.093 1010.91 154.283 1010.91 Q148.473 1010.91 145.394 1006.32 Q142.339 1001.72 142.339 992.991 Q142.339 984.241 145.394 979.658 Q148.473 975.051 154.283 975.051 Z" fill="#000000" fill-rule="nonzero" fill-opacity="1" /><path clip-path="url(#clip240)" d="M166.227 969.153 L190.339 969.153 L190.339 972.35 L166.227 972.35 L166.227 969.153 Z" fill="#000000" fill-rule="nonzero" fill-opacity="1" /><path clip-path="url(#clip240)" d="M199.197 979.629 L205.404 979.629 L205.404 958.207 L198.652 959.561 L198.652 956.1 L205.366 954.746 L209.166 954.746 L209.166 979.629 L215.372 979.629 L215.372 982.826 L199.197 982.826 L199.197 979.629 Z" fill="#000000" fill-rule="nonzero" fill-opacity="1" /><path clip-path="url(#clip240)" d="M231.171 957.247 Q228.237 957.247 226.751 960.144 Q225.284 963.021 225.284 968.814 Q225.284 974.588 226.751 977.484 Q228.237 980.362 231.171 980.362 Q234.124 980.362 235.591 977.484 Q237.076 974.588 237.076 968.814 Q237.076 963.021 235.591 960.144 Q234.124 957.247 231.171 957.247 M231.171 954.238 Q235.891 954.238 238.374 957.981 Q240.876 961.705 240.876 968.814 Q240.876 975.905 238.374 979.647 Q235.891 983.371 231.171 983.371 Q226.45 983.371 223.949 979.647 Q221.466 975.905 221.466 968.814 Q221.466 961.705 223.949 957.981 Q226.45 954.238 231.171 954.238 Z" fill="#000000" fill-rule="nonzero" fill-opacity="1" /><path clip-path="url(#clip240)" d="M140.247 575.074 L147.886 575.074 L147.886 548.708 L139.575 550.375 L139.575 546.116 L147.839 544.449 L152.515 544.449 L152.515 575.074 L160.154 575.074 L160.154 579.009 L140.247 579.009 L140.247 575.074 Z" fill="#000000" fill-rule="nonzero" fill-opacity="1" /><path clip-path="url(#clip240)" d="M179.598 547.528 Q175.987 547.528 174.159 551.093 Q172.353 554.634 172.353 561.764 Q172.353 568.87 174.159 572.435 Q175.987 575.977 179.598 575.977 Q183.233 575.977 185.038 572.435 Q186.867 568.87 186.867 561.764 Q186.867 554.634 185.038 551.093 Q183.233 547.528 179.598 547.528 M179.598 543.824 Q185.409 543.824 188.464 548.431 Q191.543 553.014 191.543 561.764 Q191.543 570.491 188.464 575.097 Q185.409 579.681 179.598 579.681 Q173.788 579.681 170.71 575.097 Q167.654 570.491 167.654 561.764 Q167.654 553.014 170.71 548.431 Q173.788 543.824 179.598 543.824 Z" fill="#000000" fill-rule="nonzero" fill-opacity="1" /><path clip-path="url(#clip240)" d="M191.543 537.926 L215.654 537.926 L215.654 541.123 L191.543 541.123 L191.543 537.926 Z" fill="#000000" fill-rule="nonzero" fill-opacity="1" /><path clip-path="url(#clip240)" d="M223.892 523.519 L238.807 523.519 L238.807 526.716 L227.372 526.716 L227.372 533.6 Q228.199 533.318 229.027 533.186 Q229.854 533.036 230.682 533.036 Q235.384 533.036 238.13 535.612 Q240.876 538.189 240.876 542.59 Q240.876 547.123 238.054 549.643 Q235.233 552.144 230.099 552.144 Q228.331 552.144 226.488 551.843 Q224.663 551.542 222.707 550.941 L222.707 547.123 Q224.4 548.044 226.205 548.496 Q228.011 548.947 230.023 548.947 Q233.277 548.947 235.177 547.235 Q237.076 545.524 237.076 542.59 Q237.076 539.656 235.177 537.944 Q233.277 536.233 230.023 536.233 Q228.5 536.233 226.977 536.571 Q225.472 536.91 223.892 537.625 L223.892 523.519 Z" fill="#000000" fill-rule="nonzero" fill-opacity="1" /><path clip-path="url(#clip240)" d="M170.17 143.847 L177.809 143.847 L177.809 117.481 L169.499 119.148 L169.499 114.889 L177.762 113.222 L182.438 113.222 L182.438 143.847 L190.077 143.847 L190.077 147.782 L170.17 147.782 L170.17 143.847 Z" fill="#000000" fill-rule="nonzero" fill-opacity="1" /><path clip-path="url(#clip240)" d="M209.522 116.301 Q205.91 116.301 204.082 119.866 Q202.276 123.407 202.276 130.537 Q202.276 137.643 204.082 141.208 Q205.91 144.75 209.522 144.75 Q213.156 144.75 214.961 141.208 Q216.79 137.643 216.79 130.537 Q216.79 123.407 214.961 119.866 Q213.156 116.301 209.522 116.301 M209.522 112.597 Q215.332 112.597 218.387 117.204 Q221.466 121.787 221.466 130.537 Q221.466 139.264 218.387 143.87 Q215.332 148.453 209.522 148.453 Q203.711 148.453 200.633 143.87 Q197.577 139.264 197.577 130.537 Q197.577 121.787 200.633 117.204 Q203.711 112.597 209.522 112.597 Z" fill="#000000" fill-rule="nonzero" fill-opacity="1" /><path clip-path="url(#clip240)" d="M231.171 94.7932 Q228.237 94.7932 226.751 97.6896 Q225.284 100.567 225.284 106.36 Q225.284 112.134 226.751 115.03 Q228.237 117.908 231.171 117.908 Q234.124 117.908 235.591 115.03 Q237.076 112.134 237.076 106.36 Q237.076 100.567 235.591 97.6896 Q234.124 94.7932 231.171 94.7932 M231.171 91.784 Q235.891 91.784 238.374 95.5267 Q240.876 99.2506 240.876 106.36 Q240.876 113.451 238.374 117.193 Q235.891 120.917 231.171 120.917 Q226.45 120.917 223.949 117.193 Q221.466 113.451 221.466 106.36 Q221.466 99.2506 223.949 95.5267 Q226.45 91.784 231.171 91.784 Z" fill="#000000" fill-rule="nonzero" fill-opacity="1" /><path clip-path="url(#clip240)" d="M21.7677 1096.2 L39.6235 1096.2 L39.6235 1088.11 Q39.6235 1083.62 37.3 1081.17 Q34.9765 1078.72 30.6797 1078.72 Q26.4147 1078.72 24.0912 1081.17 Q21.7677 1083.62 21.7677 1088.11 L21.7677 1096.2 M16.4842 1102.63 L16.4842 1088.11 Q16.4842 1080.12 20.1126 1076.05 Q23.7092 1071.94 30.6797 1071.94 Q37.7138 1071.94 41.3104 1076.05 Q44.907 1080.12 44.907 1088.11 L44.907 1096.2 L64.0042 1096.2 L64.0042 1102.63 L16.4842 1102.63 Z" fill="#000000" fill-rule="nonzero" fill-opacity="1" /><path clip-path="url(#clip240)" d="M32.4621 1052.08 Q32.4621 1056.79 36.1542 1059.53 Q39.8145 1062.27 46.212 1062.27 Q52.6095 1062.27 56.3017 1059.56 Q59.9619 1056.82 59.9619 1052.08 Q59.9619 1047.4 56.2698 1044.67 Q52.5777 1041.93 46.212 1041.93 Q39.8781 1041.93 36.186 1044.67 Q32.4621 1047.4 32.4621 1052.08 M27.4968 1052.08 Q27.4968 1044.44 32.4621 1040.08 Q37.4273 1035.72 46.212 1035.72 Q54.9649 1035.72 59.9619 1040.08 Q64.9272 1044.44 64.9272 1052.08 Q64.9272 1059.75 59.9619 1064.11 Q54.9649 1068.44 46.212 1068.44 Q37.4273 1068.44 32.4621 1064.11 Q27.4968 1059.75 27.4968 1052.08 Z" fill="#000000" fill-rule="nonzero" fill-opacity="1" /><path clip-path="url(#clip240)" d="M28.3562 1029.42 L28.3562 1023.56 L56.1743 1016.24 L28.3562 1008.95 L28.3562 1002.05 L56.1743 994.727 L28.3562 987.438 L28.3562 981.582 L64.0042 990.908 L64.0042 997.815 L34.7856 1005.49 L64.0042 1013.19 L64.0042 1020.09 L28.3562 1029.42 Z" fill="#000000" fill-rule="nonzero" fill-opacity="1" /><path clip-path="url(#clip240)" d="M44.7161 942.21 L47.5806 942.21 L47.5806 969.137 Q53.6281 968.755 56.8109 965.509 Q59.9619 962.23 59.9619 956.406 Q59.9619 953.032 59.1344 949.881 Q58.3069 946.698 56.6518 943.579 L62.1899 943.579 Q63.5267 946.73 64.227 950.04 Q64.9272 953.35 64.9272 956.756 Q64.9272 965.286 59.9619 970.283 Q54.9967 975.248 46.5303 975.248 Q37.7774 975.248 32.6531 970.538 Q27.4968 965.795 27.4968 957.774 Q27.4968 950.581 32.1438 946.412 Q36.7589 942.21 44.7161 942.21 M42.9973 948.067 Q38.1912 948.13 35.3266 950.772 Q32.4621 953.382 32.4621 957.711 Q32.4621 962.612 35.2312 965.572 Q38.0002 968.501 43.0292 968.946 L42.9973 948.067 Z" fill="#000000" fill-rule="nonzero" fill-opacity="1" /><path clip-path="url(#clip240)" d="M33.8307 911.941 Q33.2578 912.928 33.0032 914.106 Q32.7167 915.251 32.7167 916.652 Q32.7167 921.617 35.9632 924.291 Q39.1779 926.932 45.2253 926.932 L64.0042 926.932 L64.0042 932.821 L28.3562 932.821 L28.3562 926.932 L33.8944 926.932 Q30.6479 925.086 29.0883 922.126 Q27.4968 919.166 27.4968 914.933 Q27.4968 914.328 27.5923 913.596 Q27.656 912.864 27.8151 911.973 L33.8307 911.941 Z" fill="#000000" fill-rule="nonzero" fill-opacity="1" /><path clip-path="url(#clip240)" d="M18.0438 856.337 L24.314 856.337 Q22.5634 859.997 21.704 863.244 Q20.8447 866.49 20.8447 869.514 Q20.8447 874.765 22.8817 877.63 Q24.9187 880.463 28.6745 880.463 Q31.8255 880.463 33.4488 878.585 Q35.0402 876.675 36.0269 871.392 L36.8226 867.509 Q38.1912 860.315 41.6605 856.91 Q45.098 853.472 50.8908 853.472 Q57.7976 853.472 61.3624 858.119 Q64.9272 862.734 64.9272 871.678 Q64.9272 875.052 64.1633 878.871 Q63.3994 882.659 61.9035 886.733 L55.2831 886.733 Q57.4793 882.818 58.5933 879.062 Q59.7073 875.307 59.7073 871.678 Q59.7073 866.172 57.543 863.18 Q55.3786 860.188 51.3682 860.188 Q47.8671 860.188 45.8937 862.352 Q43.9204 864.485 42.9337 869.386 L42.1698 873.301 Q40.7375 880.495 37.682 883.709 Q34.6264 886.924 29.1837 886.924 Q22.8817 886.924 19.2532 882.5 Q15.6248 878.044 15.6248 870.246 Q15.6248 866.904 16.2295 863.435 Q16.8343 859.965 18.0438 856.337 Z" fill="#000000" fill-rule="nonzero" fill-opacity="1" /><path clip-path="url(#clip240)" d="M58.657 838.035 L77.5631 838.035 L77.5631 843.924 L28.3562 843.924 L28.3562 838.035 L33.7671 838.035 Q30.5842 836.189 29.0564 833.388 Q27.4968 830.556 27.4968 826.641 Q27.4968 820.148 32.6531 816.105 Q37.8093 812.031 46.212 812.031 Q54.6147 812.031 59.771 816.105 Q64.9272 820.148 64.9272 826.641 Q64.9272 830.556 63.3994 833.388 Q61.8398 836.189 58.657 838.035 M46.212 818.111 Q39.7508 818.111 36.0905 820.784 Q32.3984 823.426 32.3984 828.073 Q32.3984 832.72 36.0905 835.394 Q39.7508 838.035 46.212 838.035 Q52.6732 838.035 56.3653 835.394 Q60.0256 832.72 60.0256 828.073 Q60.0256 823.426 56.3653 820.784 Q52.6732 818.111 46.212 818.111 Z" fill="#000000" fill-rule="nonzero" fill-opacity="1" /><path clip-path="url(#clip240)" d="M44.7161 771.832 L47.5806 771.832 L47.5806 798.759 Q53.6281 798.377 56.8109 795.13 Q59.9619 791.852 59.9619 786.028 Q59.9619 782.654 59.1344 779.503 Q58.3069 776.32 56.6518 773.201 L62.1899 773.201 Q63.5267 776.352 64.227 779.662 Q64.9272 782.972 64.9272 786.378 Q64.9272 794.908 59.9619 799.905 Q54.9967 804.87 46.5303 804.87 Q37.7774 804.87 32.6531 800.159 Q27.4968 795.417 27.4968 787.396 Q27.4968 780.203 32.1438 776.033 Q36.7589 771.832 44.7161 771.832 M42.9973 777.688 Q38.1912 777.752 35.3266 780.394 Q32.4621 783.004 32.4621 787.332 Q32.4621 792.234 35.2312 795.194 Q38.0002 798.122 43.0292 798.568 L42.9973 777.688 Z" fill="#000000" fill-rule="nonzero" fill-opacity="1" /><path clip-path="url(#clip240)" d="M29.7248 736.566 L35.1993 736.566 Q33.8307 739.049 33.1623 741.563 Q32.4621 744.046 32.4621 746.592 Q32.4621 752.289 36.0905 755.44 Q39.6872 758.591 46.212 758.591 Q52.7369 758.591 56.3653 755.44 Q59.9619 752.289 59.9619 746.592 Q59.9619 744.046 59.2935 741.563 Q58.5933 739.049 57.2247 736.566 L62.6355 736.566 Q63.7814 739.017 64.3543 741.659 Q64.9272 744.268 64.9272 747.229 Q64.9272 755.281 59.8664 760.024 Q54.8057 764.766 46.212 764.766 Q37.491 764.766 32.4939 759.992 Q27.4968 755.186 27.4968 746.847 Q27.4968 744.141 28.0697 741.563 Q28.6108 738.985 29.7248 736.566 Z" fill="#000000" fill-rule="nonzero" fill-opacity="1" /><path clip-path="url(#clip240)" d="M18.2347 720.588 L28.3562 720.588 L28.3562 708.525 L32.9077 708.525 L32.9077 720.588 L52.2594 720.588 Q56.6199 720.588 57.8613 719.41 Q59.1026 718.201 59.1026 714.541 L59.1026 708.525 L64.0042 708.525 L64.0042 714.541 Q64.0042 721.32 61.4897 723.898 Q58.9434 726.476 52.2594 726.476 L32.9077 726.476 L32.9077 730.773 L28.3562 730.773 L28.3562 726.476 L18.2347 726.476 L18.2347 720.588 Z" fill="#000000" fill-rule="nonzero" fill-opacity="1" /><path clip-path="url(#clip240)" d="M33.8307 680.166 Q33.2578 681.153 33.0032 682.33 Q32.7167 683.476 32.7167 684.876 Q32.7167 689.842 35.9632 692.515 Q39.1779 695.157 45.2253 695.157 L64.0042 695.157 L64.0042 701.045 L28.3562 701.045 L28.3562 695.157 L33.8944 695.157 Q30.6479 693.311 29.0883 690.351 Q27.4968 687.391 27.4968 683.158 Q27.4968 682.553 27.5923 681.821 Q27.656 681.089 27.8151 680.198 L33.8307 680.166 Z" fill="#000000" fill-rule="nonzero" fill-opacity="1" /><path clip-path="url(#clip240)" d="M46.0847 657.822 Q46.0847 664.92 47.7079 667.657 Q49.3312 670.394 53.2461 670.394 Q56.3653 670.394 58.2114 668.357 Q60.0256 666.289 60.0256 662.756 Q60.0256 657.886 56.5881 654.958 Q53.1188 651.998 47.3897 651.998 L46.0847 651.998 L46.0847 657.822 M43.6657 646.141 L64.0042 646.141 L64.0042 651.998 L58.5933 651.998 Q61.8398 654.003 63.3994 656.995 Q64.9272 659.987 64.9272 664.315 Q64.9272 669.79 61.8716 673.036 Q58.7843 676.251 53.6281 676.251 Q47.6125 676.251 44.5569 672.241 Q41.5014 668.198 41.5014 660.209 L41.5014 651.998 L40.9285 651.998 Q36.8862 651.998 34.6901 654.671 Q32.4621 657.313 32.4621 662.119 Q32.4621 665.175 33.1941 668.071 Q33.9262 670.967 35.3903 673.641 L29.9795 673.641 Q28.7381 670.426 28.1334 667.403 Q27.4968 664.379 27.4968 661.514 Q27.4968 653.78 31.5072 649.961 Q35.5176 646.141 43.6657 646.141 Z" fill="#000000" fill-rule="nonzero" fill-opacity="1" /><path clip-path="url(#clip240)" d="M14.479 634.078 L14.479 628.222 L64.0042 628.222 L64.0042 634.078 L14.479 634.078 Z" fill="#000000" fill-rule="nonzero" fill-opacity="1" /><path clip-path="url(#clip240)" d="M21.7677 588.563 L58.7206 588.563 L58.7206 580.797 Q58.7206 570.962 54.2646 566.411 Q49.8086 561.827 40.1964 561.827 Q30.6479 561.827 26.2237 566.411 Q21.7677 570.962 21.7677 580.797 L21.7677 588.563 M16.4842 594.993 L16.4842 581.784 Q16.4842 567.97 22.2451 561.509 Q27.9743 555.048 40.1964 555.048 Q52.4822 555.048 58.2432 561.541 Q64.0042 568.034 64.0042 581.784 L64.0042 594.993 L16.4842 594.993 Z" fill="#000000" fill-rule="nonzero" fill-opacity="1" /><path clip-path="url(#clip240)" d="M44.7161 514.562 L47.5806 514.562 L47.5806 541.489 Q53.6281 541.107 56.8109 537.86 Q59.9619 534.582 59.9619 528.757 Q59.9619 525.384 59.1344 522.233 Q58.3069 519.05 56.6518 515.931 L62.1899 515.931 Q63.5267 519.082 64.227 522.392 Q64.9272 525.702 64.9272 529.108 Q64.9272 537.638 59.9619 542.635 Q54.9967 547.6 46.5303 547.6 Q37.7774 547.6 32.6531 542.889 Q27.4968 538.147 27.4968 530.126 Q27.4968 522.933 32.1438 518.763 Q36.7589 514.562 44.7161 514.562 M42.9973 520.418 Q38.1912 520.482 35.3266 523.124 Q32.4621 525.734 32.4621 530.062 Q32.4621 534.964 35.2312 537.924 Q38.0002 540.852 43.0292 541.298 L42.9973 520.418 Z" fill="#000000" fill-rule="nonzero" fill-opacity="1" /><path clip-path="url(#clip240)" d="M42.4881 475.317 L64.0042 475.317 L64.0042 481.174 L42.679 481.174 Q37.6183 481.174 35.1038 483.147 Q32.5894 485.121 32.5894 489.067 Q32.5894 493.81 35.6131 496.547 Q38.6368 499.284 43.8567 499.284 L64.0042 499.284 L64.0042 505.173 L28.3562 505.173 L28.3562 499.284 L33.8944 499.284 Q30.6797 497.184 29.0883 494.351 Q27.4968 491.486 27.4968 487.762 Q27.4968 481.619 31.3163 478.468 Q35.1038 475.317 42.4881 475.317 Z" fill="#000000" fill-rule="nonzero" fill-opacity="1" /><path clip-path="url(#clip240)" d="M29.4065 440.911 L34.9447 440.911 Q33.6716 443.393 33.035 446.067 Q32.3984 448.741 32.3984 451.605 Q32.3984 455.966 33.7352 458.162 Q35.072 460.326 37.7456 460.326 Q39.7826 460.326 40.9603 458.767 Q42.1061 457.207 43.1565 452.496 L43.6021 450.491 Q44.9389 444.253 47.3897 441.643 Q49.8086 439.001 54.1691 439.001 Q59.1344 439.001 62.0308 442.948 Q64.9272 446.863 64.9272 453.738 Q64.9272 456.602 64.3543 459.721 Q63.8132 462.809 62.6992 466.246 L56.6518 466.246 Q58.3387 463 59.198 459.849 Q60.0256 456.698 60.0256 453.61 Q60.0256 449.473 58.6251 447.245 Q57.1929 445.017 54.6147 445.017 Q52.2276 445.017 50.9545 446.64 Q49.6813 448.231 48.5037 453.674 L48.0262 455.711 Q46.8804 461.154 44.5251 463.573 Q42.138 465.992 38.0002 465.992 Q32.9713 465.992 30.2341 462.427 Q27.4968 458.862 27.4968 452.305 Q27.4968 449.059 27.9743 446.194 Q28.4517 443.33 29.4065 440.911 Z" fill="#000000" fill-rule="nonzero" fill-opacity="1" /><path clip-path="url(#clip240)" d="M28.3562 429.675 L28.3562 423.819 L64.0042 423.819 L64.0042 429.675 L28.3562 429.675 M14.479 429.675 L14.479 423.819 L21.895 423.819 L21.895 429.675 L14.479 429.675 Z" fill="#000000" fill-rule="nonzero" fill-opacity="1" /><path clip-path="url(#clip240)" d="M18.2347 405.772 L28.3562 405.772 L28.3562 393.709 L32.9077 393.709 L32.9077 405.772 L52.2594 405.772 Q56.6199 405.772 57.8613 404.594 Q59.1026 403.385 59.1026 399.725 L59.1026 393.709 L64.0042 393.709 L64.0042 399.725 Q64.0042 406.504 61.4897 409.082 Q58.9434 411.66 52.2594 411.66 L32.9077 411.66 L32.9077 415.957 L28.3562 415.957 L28.3562 411.66 L18.2347 411.66 L18.2347 405.772 Z" fill="#000000" fill-rule="nonzero" fill-opacity="1" /><path clip-path="url(#clip240)" d="M67.3143 371.174 Q73.68 373.657 75.6216 376.012 Q77.5631 378.368 77.5631 382.314 L77.5631 386.993 L72.6615 386.993 L72.6615 383.556 Q72.6615 381.137 71.5157 379.8 Q70.3699 378.463 66.1048 376.84 L63.4312 375.79 L28.3562 390.208 L28.3562 384.001 L56.238 372.861 L28.3562 361.721 L28.3562 355.515 L67.3143 371.174 Z" fill="#000000" fill-rule="nonzero" fill-opacity="1" /><polyline clip-path="url(#clip242)" style="stroke:#009af9; stroke-linecap:round; stroke-linejoin:round; stroke-width:4; stroke-opacity:1; fill:none" points="335.627,85.838 337.587,85.9935 339.548,86.149 341.508,86.3045 343.468,86.46 345.429,86.6155 347.389,86.7709 349.349,86.9264 351.31,87.0819 353.27,87.2375 355.23,87.393 357.191,87.5485 359.151,87.704 361.111,87.8595 363.072,88.0151 365.032,88.1706 366.992,88.3261 368.953,88.4817 370.913,88.6372 372.873,88.7928 374.834,88.9484 376.794,89.104 378.754,89.2595 380.715,89.4151 382.675,89.5707 384.635,89.7263 386.596,89.8819 388.556,90.0376 390.516,90.1932 392.477,90.3488 394.437,90.5045 396.397,90.6602 398.358,90.8158 400.318,90.9715 402.278,91.1272 404.239,91.2829 406.199,91.4386 408.159,91.5944 410.12,91.7501 412.08,91.9059 414.04,92.0617 416.001,92.2175 417.961,92.3733 419.921,92.5291 421.882,92.6849 423.842,92.8408 425.802,92.9967 427.763,93.1526 429.723,93.3085 431.683,93.4645 433.644,93.6204 435.604,93.7764 437.564,93.9324 439.525,94.0885 441.485,94.2445 443.445,94.4006 445.406,94.5567 447.366,94.7129 449.326,94.8691 451.287,95.0253 453.247,95.1815 455.207,95.3378 457.168,95.4941 459.128,95.6505 461.088,95.8069 463.049,95.9633 465.009,96.1198 466.969,96.2763 468.93,96.4329 470.89,96.5895 472.851,96.7462 474.811,96.9029 476.771,97.0597 478.732,97.2165 480.692,97.3734 482.652,97.5303 484.613,97.6873 486.573,97.8444 488.533,98.0015 490.494,98.1588 492.454,98.316 494.414,98.4734 496.375,98.6309 498.335,98.7884 500.295,98.946 502.256,99.1037 504.216,99.2615 506.176,99.4194 508.137,99.5774 510.097,99.7356 512.057,99.8938 514.018,100.052 515.978,100.211 517.938,100.369 519.899,100.528 521.859,100.687 523.819,100.846 525.78,101.005 527.74,101.164 529.7,101.324 531.661,101.483 533.621,101.643 535.581,101.803 537.542,101.963 539.502,102.123 541.462,102.284 543.423,102.445 545.383,102.606 547.343,102.767 549.304,102.928 551.264,103.09 553.224,103.252 555.185,103.414 557.145,103.577 559.105,103.739 561.066,103.903 563.026,104.066 564.986,104.23 566.947,104.394 568.907,104.558 570.867,104.723 572.828,104.888 574.788,105.054 576.748,105.219 578.709,105.386 580.669,105.553 582.629,105.72 584.59,105.888 586.55,106.056 588.51,106.225 590.471,106.394 592.431,106.564 594.391,106.735 596.352,106.906 598.312,107.077 600.272,107.25 602.233,107.423 604.193,107.597 606.153,107.771 608.114,107.947 610.074,108.123 612.035,108.3 613.995,108.478 615.955,108.656 617.916,108.836 619.876,109.017 621.836,109.198 623.797,109.381 625.757,109.565 627.717,109.75 629.678,109.936 631.638,110.124 633.598,110.312 635.559,110.502 637.519,110.694 639.479,110.886 641.44,111.081 643.4,111.277 645.36,111.474 647.321,111.673 649.281,111.874 651.241,112.077 653.202,112.281 655.162,112.488 657.122,112.696 659.083,112.907 661.043,113.12 663.003,113.335 664.964,113.552 666.924,113.772 668.884,113.994 670.845,114.219 672.805,114.447 674.765,114.677 676.726,114.911 678.686,115.147 680.646,115.386 682.607,115.629 684.567,115.875 686.527,116.125 688.488,116.378 690.448,116.635 692.408,116.896 694.369,117.161 696.329,117.429 698.289,117.703 700.25,117.98 702.21,118.262 704.17,118.549 706.131,118.841 708.091,119.138 710.051,119.44 712.012,119.748 713.972,120.061 715.932,120.38 717.893,120.704 719.853,121.035 721.813,121.373 723.774,121.716 725.734,122.067 727.694,122.424 729.655,122.788 731.615,123.16 733.575,123.539 735.536,123.926 737.496,124.321 739.456,124.725 741.417,125.136 743.377,125.556 745.337,125.986 747.298,126.424 749.258,126.871 751.219,127.328 753.179,127.795 755.139,128.272 757.1,128.759 759.06,129.257 761.02,129.765 762.981,130.284 764.941,130.815 766.901,131.356 768.862,131.91 770.822,132.475 772.782,133.052 774.743,133.642 776.703,134.244 778.663,134.859 780.624,135.487 782.584,136.127 784.544,136.781 786.505,137.449 788.465,138.13 790.425,138.825 792.386,139.534 794.346,140.257 796.306,140.994 798.267,141.745 800.227,142.511 802.187,143.292 804.148,144.087 806.108,144.897 808.068,145.722 810.029,146.562 811.989,147.416 813.949,148.286 815.91,149.171 817.87,150.071 819.83,150.986 821.791,151.916 823.751,152.861 825.711,153.821 827.672,154.796 829.632,155.785 831.592,156.79 833.553,157.81 835.513,158.844 837.473,159.893 839.434,160.956 841.394,162.033 843.354,163.125 845.315,164.231 847.275,165.351 849.235,166.484 851.196,167.631 853.156,168.792 855.116,169.965 857.077,171.152 859.037,172.352 860.997,173.564 862.958,174.789 864.918,176.026 866.878,177.275 868.839,178.536 870.799,179.809 872.759,181.093 874.72,182.388 876.68,183.694 878.64,185.01 880.601,186.337 882.561,187.675 884.522,189.022 886.482,190.379 888.442,191.746 890.403,193.121 892.363,194.506 894.323,195.9 896.284,197.303 898.244,198.713 900.204,200.132 902.165,201.559 904.125,202.994 906.085,204.436 908.046,205.885 910.006,207.342 911.966,208.805 913.927,210.275 915.887,211.752 917.847,213.234 919.808,214.723 921.768,216.218 923.728,217.719 925.689,219.225 927.649,220.736 929.609,222.253 931.57,223.775 933.53,225.301 935.49,226.833 937.451,228.369 939.411,229.909 941.371,231.453 943.332,233.002 945.292,234.555 947.252,236.111 949.213,237.671 951.173,239.235 953.133,240.802 955.094,242.373 957.054,243.947 959.014,245.524 960.975,247.104 962.935,248.687 964.895,250.272 966.856,251.861 968.816,253.452 970.776,255.045 972.737,256.641 974.697,258.239 976.657,259.84 978.618,261.442 980.578,263.047 982.538,264.654 984.499,266.262 986.459,267.873 988.419,269.485 990.38,271.099 992.34,272.715 994.3,274.332 996.261,275.951 998.221,277.571 1000.18,279.193 1002.14,280.816 1004.1,282.441 1006.06,284.066 1008.02,285.693 1009.98,287.321 1011.94,288.951 1013.9,290.581 1015.86,292.212 1017.82,293.845 1019.78,295.478 1021.75,297.113 1023.71,298.748 1025.67,300.384 1027.63,302.021 1029.59,303.659 1031.55,305.297 1033.51,306.936 1035.47,308.576 1037.43,310.217 1039.39,311.858 1041.35,313.5 1043.31,315.143 1045.27,316.786 1047.23,318.429 1049.19,320.074 1051.15,321.718 1053.11,323.364 1055.07,325.009 1057.03,326.656 1058.99,328.302 1060.95,329.949 1062.91,331.597 1064.87,333.245 1066.83,334.893 1068.79,336.541 1070.75,338.19 1072.71,339.84 1074.67,341.489 1076.63,343.139 1078.59,344.789 1080.56,346.44 1082.52,348.091 1084.48,349.742 1086.44,351.393 1088.4,353.045 1090.36,354.697 1092.32,356.349 1094.28,358.001 1096.24,359.653 1098.2,361.306 1100.16,362.959 1102.12,364.612 1104.08,366.265 1106.04,367.918 1108,369.572 1109.96,371.226 1111.92,372.879 1113.88,374.533 1115.84,376.187 1117.8,377.842 1119.76,379.496 1121.72,381.151 1123.68,382.805 1125.64,384.46 1127.6,386.115 1129.56,387.77 1131.52,389.425 1133.48,391.08 1135.44,392.735 1137.41,394.391 1139.37,396.046 1141.33,397.702 1143.29,399.357 1145.25,401.013 1147.21,402.669 1149.17,404.325 1151.13,405.981 1153.09,407.637 1155.05,409.293 1157.01,410.949 1158.97,412.605 1160.93,414.261 1162.89,415.917 1164.85,417.574 1166.81,419.23 1168.77,420.886 1170.73,422.543 1172.69,424.199 1174.65,425.856 1176.61,427.512 1178.57,429.169 1180.53,430.826 1182.49,432.482 1184.45,434.139 1186.41,435.796 1188.37,437.453 1190.33,439.109 1192.29,440.766 1194.25,442.423 1196.22,444.08 1198.18,445.737 1200.14,447.394 1202.1,449.051 1204.06,450.708 1206.02,452.365 1207.98,454.022 1209.94,455.679 1211.9,457.336 1213.86,458.993 1215.82,460.65 1217.78,462.308 1219.74,463.965 1221.7,465.622 1223.66,467.279 1225.62,468.936 1227.58,470.593 1229.54,472.251 1231.5,473.908 1233.46,475.565 1235.42,477.222 1237.38,478.88 1239.34,480.537 1241.3,482.194 1243.26,483.852 1245.22,485.509 1247.18,487.166 1249.14,488.824 1251.1,490.481 1253.07,492.138 1255.03,493.796 1256.99,495.453 1258.95,497.111 1260.91,498.768 1262.87,500.425 1264.83,502.083 1266.79,503.74 1268.75,505.398 1270.71,507.055 1272.67,508.712 1274.63,510.37 1276.59,512.027 1278.55,513.685 1280.51,515.342 1282.47,517 1284.43,518.657 1286.39,520.315 1288.35,521.972 1290.31,523.629 1292.27,525.287 1294.23,526.944 1296.19,528.602 1298.15,530.259 1300.11,531.917 1302.07,533.574 1304.03,535.232 1305.99,536.889 1307.95,538.547 1309.91,540.204 1311.88,541.862 1313.84,543.519 1315.8,545.177 1317.76,546.834 1319.72,548.492 1321.68,550.149 1323.64,551.807 1325.6,553.465 1327.56,555.122 1329.52,556.78 1331.48,558.437 1333.44,560.095 1335.4,561.752 1337.36,563.41 1339.32,565.067 1341.28,566.725 1343.24,568.382 1345.2,570.04 1347.16,571.697 1349.12,573.355 1351.08,575.012 1353.04,576.67 1355,578.328 1356.96,579.985 1358.92,581.643 1360.88,583.3 1362.84,584.958 1364.8,586.615 1366.76,588.273 1368.73,589.93 1370.69,591.588 1372.65,593.245 1374.61,594.903 1376.57,596.561 1378.53,598.218 1380.49,599.876 1382.45,601.533 1384.41,603.191 1386.37,604.848 1388.33,606.506 1390.29,608.163 1392.25,609.821 1394.21,611.479 1396.17,613.136 1398.13,614.794 1400.09,616.451 1402.05,618.109 1404.01,619.766 1405.97,621.424 1407.93,623.082 1409.89,624.739 1411.85,626.397 1413.81,628.054 1415.77,629.712 1417.73,631.369 1419.69,633.027 1421.65,634.684 1423.61,636.342 1425.57,638 1427.54,639.657 1429.5,641.315 1431.46,642.972 1433.42,644.63 1435.38,646.287 1437.34,647.945 1439.3,649.603 1441.26,651.26 1443.22,652.918 1445.18,654.575 1447.14,656.233 1449.1,657.89 1451.06,659.548 1453.02,661.205 1454.98,662.863 1456.94,664.521 1458.9,666.178 1460.86,667.836 1462.82,669.493 1464.78,671.151 1466.74,672.808 1468.7,674.466 1470.66,676.124 1472.62,677.781 1474.58,679.439 1476.54,681.096 1478.5,682.754 1480.46,684.411 1482.42,686.069 1484.38,687.727 1486.35,689.384 1488.31,691.042 1490.27,692.699 1492.23,694.357 1494.19,696.014 1496.15,697.672 1498.11,699.33 1500.07,700.987 1502.03,702.645 1503.99,704.302 1505.95,705.96 1507.91,707.617 1509.87,709.275 1511.83,710.933 1513.79,712.59 1515.75,714.248 1517.71,715.905 1519.67,717.563 1521.63,719.22 1523.59,720.878 1525.55,722.535 1527.51,724.193 1529.47,725.851 1531.43,727.508 1533.39,729.166 1535.35,730.823 1537.31,732.481 1539.27,734.138 1541.23,735.796 1543.2,737.454 1545.16,739.111 1547.12,740.769 1549.08,742.426 1551.04,744.084 1553,745.741 1554.96,747.399 1556.92,749.057 1558.88,750.714 1560.84,752.372 1562.8,754.029 1564.76,755.687 1566.72,757.344 1568.68,759.002 1570.64,760.66 1572.6,762.317 1574.56,763.975 1576.52,765.632 1578.48,767.29 1580.44,768.947 1582.4,770.605 1584.36,772.263 1586.32,773.92 1588.28,775.578 1590.24,777.235 1592.2,778.893 1594.16,780.55 1596.12,782.208 1598.08,783.866 1600.04,785.523 1602.01,787.181 1603.97,788.838 1605.93,790.496 1607.89,792.153 1609.85,793.811 1611.81,795.469 1613.77,797.126 1615.73,798.784 1617.69,800.441 1619.65,802.099 1621.61,803.756 1623.57,805.414 1625.53,807.072 1627.49,808.729 1629.45,810.387 1631.41,812.044 1633.37,813.702 1635.33,815.359 1637.29,817.017 1639.25,818.674 1641.21,820.332 1643.17,821.99 1645.13,823.647 1647.09,825.305 1649.05,826.962 1651.01,828.62 1652.97,830.277 1654.93,831.935 1656.89,833.593 1658.86,835.25 1660.82,836.908 1662.78,838.565 1664.74,840.223 1666.7,841.88 1668.66,843.538 1670.62,845.196 1672.58,846.853 1674.54,848.511 1676.5,850.168 1678.46,851.826 1680.42,853.483 1682.38,855.141 1684.34,856.799 1686.3,858.456 1688.26,860.114 1690.22,861.771 1692.18,863.429 1694.14,865.086 1696.1,866.744 1698.06,868.402 1700.02,870.059 1701.98,871.717 1703.94,873.374 1705.9,875.032 1707.86,876.689 1709.82,878.347 1711.78,880.005 1713.74,881.662 1715.7,883.32 1717.67,884.977 1719.63,886.635 1721.59,888.292 1723.55,889.95 1725.51,891.608 1727.47,893.265 1729.43,894.923 1731.39,896.58 1733.35,898.238 1735.31,899.895 1737.27,901.553 1739.23,903.211 1741.19,904.868 1743.15,906.526 1745.11,908.183 1747.07,909.841 1749.03,911.498 1750.99,913.156 1752.95,914.814 1754.91,916.471 1756.87,918.129 1758.83,919.786 1760.79,921.444 1762.75,923.101 1764.71,924.759 1766.67,926.417 1768.63,928.074 1770.59,929.732 1772.55,931.389 1774.51,933.047 1776.48,934.704 1778.44,936.362 1780.4,938.019 1782.36,939.677 1784.32,941.335 1786.28,942.992 1788.24,944.65 1790.2,946.307 1792.16,947.965 1794.12,949.622 1796.08,951.28 1798.04,952.938 1800,954.595 1801.96,956.253 1803.92,957.91 1805.88,959.568 1807.84,961.225 1809.8,962.883 1811.76,964.541 1813.72,966.198 1815.68,967.856 1817.64,969.513 1819.6,971.171 1821.56,972.828 1823.52,974.486 1825.48,976.144 1827.44,977.801 1829.4,979.459 1831.36,981.116 1833.33,982.774 1835.29,984.431 1837.25,986.089 1839.21,987.747 1841.17,989.404 1843.13,991.062 1845.09,992.719 1847.05,994.377 1849.01,996.034 1850.97,997.692 1852.93,999.35 1854.89,1001.01 1856.85,1002.66 1858.81,1004.32 1860.77,1005.98 1862.73,1007.64 1864.69,1009.29 1866.65,1010.95 1868.61,1012.61 1870.57,1014.27 1872.53,1015.93 1874.49,1017.58 1876.45,1019.24 1878.41,1020.9 1880.37,1022.56 1882.33,1024.21 1884.29,1025.87 1886.25,1027.53 1888.21,1029.19 1890.17,1030.84 1892.14,1032.5 1894.1,1034.16 1896.06,1035.82 1898.02,1037.47 1899.98,1039.13 1901.94,1040.79 1903.9,1042.45 1905.86,1044.1 1907.82,1045.76 1909.78,1047.42 1911.74,1049.08 1913.7,1050.73 1915.66,1052.39 1917.62,1054.05 1919.58,1055.71 1921.54,1057.36 1923.5,1059.02 1925.46,1060.68 1927.42,1062.34 1929.38,1063.99 1931.34,1065.65 1933.3,1067.31 1935.26,1068.97 1937.22,1070.63 1939.18,1072.28 1941.14,1073.94 1943.1,1075.6 1945.06,1077.26 1947.02,1078.91 1948.99,1080.57 1950.95,1082.23 1952.91,1083.89 1954.87,1085.54 1956.83,1087.2 1958.79,1088.86 1960.75,1090.52 1962.71,1092.17 1964.67,1093.83 1966.63,1095.49 1968.59,1097.15 1970.55,1098.8 1972.51,1100.46 1974.47,1102.12 1976.43,1103.78 1978.39,1105.43 1980.35,1107.09 1982.31,1108.75 1984.27,1110.41 1986.23,1112.06 1988.19,1113.72 1990.15,1115.38 1992.11,1117.04 1994.07,1118.69 1996.03,1120.35 1997.99,1122.01 1999.95,1123.67 2001.91,1125.32 2003.87,1126.98 2005.83,1128.64 2007.8,1130.3 2009.76,1131.96 2011.72,1133.61 2013.68,1135.27 2015.64,1136.93 2017.6,1138.59 2019.56,1140.24 2021.52,1141.9 2023.48,1143.56 2025.44,1145.22 2027.4,1146.87 2029.36,1148.53 2031.32,1150.19 2033.28,1151.85 2035.24,1153.5 2037.2,1155.16 2039.16,1156.82 2041.12,1158.48 2043.08,1160.13 2045.04,1161.79 2047,1163.45 2048.96,1165.11 2050.92,1166.76 2052.88,1168.42 2054.84,1170.08 2056.8,1171.74 2058.76,1173.39 2060.72,1175.05 2062.68,1176.71 2064.65,1178.37 2066.61,1180.02 2068.57,1181.68 2070.53,1183.34 2072.49,1185 2074.45,1186.65 2076.41,1188.31 2078.37,1189.97 2080.33,1191.63 2082.29,1193.29 2084.25,1194.94 2086.21,1196.6 2088.17,1198.26 2090.13,1199.92 2092.09,1201.57 2094.05,1203.23 2096.01,1204.89 2097.97,1206.55 2099.93,1208.2 2101.89,1209.86 2103.85,1211.52 2105.81,1213.18 2107.77,1214.83 2109.73,1216.49 2111.69,1218.15 2113.65,1219.81 2115.61,1221.46 2117.57,1223.12 2119.53,1224.78 2121.49,1226.44 2123.46,1228.09 2125.42,1229.75 2127.38,1231.41 2129.34,1233.07 2131.3,1234.72 2133.26,1236.38 2135.22,1238.04 2137.18,1239.7 2139.14,1241.35 2141.1,1243.01 2143.06,1244.67 2145.02,1246.33 2146.98,1247.98 2148.94,1249.64 2150.9,1251.3 2152.86,1252.96 2154.82,1254.62 2156.78,1256.27 2158.74,1257.93 2160.7,1259.59 2162.66,1261.25 2164.62,1262.9 2166.58,1264.56 2168.54,1266.22 2170.5,1267.88 2172.46,1269.53 2174.42,1271.19 2176.38,1272.85 2178.34,1274.51 2180.3,1276.16 2182.27,1277.82 2184.23,1279.48 2186.19,1281.14 2188.15,1282.79 2190.11,1284.45 2192.07,1286.11 2194.03,1287.77 2195.99,1289.42 2197.95,1291.08 2199.91,1292.74 2201.87,1294.4 2203.83,1296.05 2205.79,1297.71 2207.75,1299.37 2209.71,1301.03 2211.67,1302.68 2213.63,1304.34 2215.59,1306 2217.55,1307.66 2219.51,1309.32 2221.47,1310.97 2223.43,1312.63 2225.39,1314.29 2227.35,1315.95 2229.31,1317.6 2231.27,1319.26 2233.23,1320.92 2235.19,1322.58 2237.15,1324.23 2239.12,1325.89 2241.08,1327.55 2243.04,1329.21 2245,1330.86 2246.96,1332.52 2248.92,1334.18 2250.88,1335.84 2252.84,1337.49 2254.8,1339.15 2256.76,1340.81 2258.72,1342.47 2260.68,1344.12 2262.64,1345.78 2264.6,1347.44 2266.56,1349.1 2268.52,1350.75 2270.48,1352.41 2272.44,1354.07 2274.4,1355.73 2276.36,1357.38 2278.32,1359.04 2280.28,1360.7 2282.24,1362.36 2284.2,1364.01 2286.16,1365.67 2288.12,1367.33 2290.08,1368.99 2292.04,1370.65 2294,1372.3 "/>
<path clip-path="url(#clip240)" d="M1457.43 196.379 L2283.56 196.379 L2283.56 92.6992 L1457.43 92.6992  Z" fill="#ffffff" fill-rule="evenodd" fill-opacity="1"/>
<polyline clip-path="url(#clip240)" style="stroke:#000000; stroke-linecap:round; stroke-linejoin:round; stroke-width:4; stroke-opacity:1; fill:none" points="1457.43,196.379 2283.56,196.379 2283.56,92.6992 1457.43,92.6992 1457.43,196.379 "/>
<polyline clip-path="url(#clip240)" style="stroke:#009af9; stroke-linecap:round; stroke-linejoin:round; stroke-width:4; stroke-opacity:1; fill:none" points="1480.5,144.539 1618.89,144.539 "/>
<path clip-path="url(#clip240)" d="M1664.2 128.393 L1664.2 132.954 Q1661.54 131.68 1659.18 131.055 Q1656.82 130.43 1654.62 130.43 Q1650.8 130.43 1648.72 131.912 Q1646.66 133.393 1646.66 136.125 Q1646.66 138.417 1648.02 139.597 Q1649.41 140.754 1653.25 141.472 L1656.08 142.051 Q1661.31 143.046 1663.78 145.569 Q1666.28 148.069 1666.28 152.282 Q1666.28 157.305 1662.91 159.898 Q1659.55 162.49 1653.04 162.49 Q1650.59 162.49 1647.81 161.935 Q1645.06 161.379 1642.1 160.291 L1642.1 155.477 Q1644.94 157.074 1647.67 157.884 Q1650.41 158.694 1653.04 158.694 Q1657.05 158.694 1659.22 157.12 Q1661.4 155.546 1661.4 152.629 Q1661.4 150.083 1659.83 148.648 Q1658.28 147.213 1654.71 146.495 L1651.86 145.94 Q1646.63 144.898 1644.29 142.676 Q1641.96 140.454 1641.96 136.495 Q1641.96 131.912 1645.17 129.273 Q1648.41 126.634 1654.09 126.634 Q1656.52 126.634 1659.04 127.074 Q1661.56 127.514 1664.2 128.393 Z" fill="#000000" fill-rule="nonzero" fill-opacity="1" /><path clip-path="url(#clip240)" d="M1673.39 135.893 L1677.65 135.893 L1677.65 161.819 L1673.39 161.819 L1673.39 135.893 M1673.39 125.801 L1677.65 125.801 L1677.65 131.194 L1673.39 131.194 L1673.39 125.801 Z" fill="#000000" fill-rule="nonzero" fill-opacity="1" /><path clip-path="url(#clip240)" d="M1708.11 146.171 L1708.11 161.819 L1703.85 161.819 L1703.85 146.31 Q1703.85 142.629 1702.42 140.801 Q1700.98 138.972 1698.11 138.972 Q1694.66 138.972 1692.67 141.171 Q1690.68 143.37 1690.68 147.166 L1690.68 161.819 L1686.4 161.819 L1686.4 135.893 L1690.68 135.893 L1690.68 139.921 Q1692.21 137.583 1694.27 136.426 Q1696.35 135.268 1699.06 135.268 Q1703.53 135.268 1705.82 138.046 Q1708.11 140.801 1708.11 146.171 Z" fill="#000000" fill-rule="nonzero" fill-opacity="1" /><path clip-path="url(#clip240)" d="M1733.67 148.555 Q1733.67 143.926 1731.75 141.379 Q1729.85 138.833 1726.4 138.833 Q1722.97 138.833 1721.05 141.379 Q1719.15 143.926 1719.15 148.555 Q1719.15 153.162 1721.05 155.708 Q1722.97 158.254 1726.4 158.254 Q1729.85 158.254 1731.75 155.708 Q1733.67 153.162 1733.67 148.555 M1737.93 158.602 Q1737.93 165.222 1734.99 168.44 Q1732.05 171.68 1725.98 171.68 Q1723.74 171.68 1721.75 171.333 Q1719.76 171.009 1717.88 170.315 L1717.88 166.171 Q1719.76 167.19 1721.59 167.676 Q1723.41 168.162 1725.31 168.162 Q1729.5 168.162 1731.59 165.963 Q1733.67 163.787 1733.67 159.365 L1733.67 157.259 Q1732.35 159.551 1730.29 160.685 Q1728.23 161.819 1725.36 161.819 Q1720.59 161.819 1717.67 158.185 Q1714.76 154.551 1714.76 148.555 Q1714.76 142.537 1717.67 138.903 Q1720.59 135.268 1725.36 135.268 Q1728.23 135.268 1730.29 136.403 Q1732.35 137.537 1733.67 139.829 L1733.67 135.893 L1737.93 135.893 L1737.93 158.602 Z" fill="#000000" fill-rule="nonzero" fill-opacity="1" /><path clip-path="url(#clip240)" d="M1746.7 125.801 L1750.96 125.801 L1750.96 161.819 L1746.7 161.819 L1746.7 125.801 Z" fill="#000000" fill-rule="nonzero" fill-opacity="1" /><path clip-path="url(#clip240)" d="M1782.05 147.791 L1782.05 149.875 L1762.46 149.875 Q1762.74 154.273 1765.1 156.588 Q1767.49 158.879 1771.72 158.879 Q1774.18 158.879 1776.47 158.278 Q1778.78 157.676 1781.05 156.472 L1781.05 160.5 Q1778.76 161.472 1776.35 161.981 Q1773.95 162.49 1771.47 162.49 Q1765.27 162.49 1761.63 158.879 Q1758.02 155.268 1758.02 149.111 Q1758.02 142.745 1761.45 139.018 Q1764.9 135.268 1770.73 135.268 Q1775.96 135.268 1778.99 138.648 Q1782.05 142.004 1782.05 147.791 M1777.79 146.541 Q1777.74 143.046 1775.82 140.963 Q1773.92 138.879 1770.77 138.879 Q1767.21 138.879 1765.06 140.893 Q1762.93 142.907 1762.6 146.565 L1777.79 146.541 Z" fill="#000000" fill-rule="nonzero" fill-opacity="1" /><path clip-path="url(#clip240)" d="M1808.97 145.315 L1808.97 157.977 L1816.47 157.977 Q1820.24 157.977 1822.05 156.426 Q1823.88 154.852 1823.88 151.634 Q1823.88 148.393 1822.05 146.866 Q1820.24 145.315 1816.47 145.315 L1808.97 145.315 M1808.97 131.102 L1808.97 141.518 L1815.89 141.518 Q1819.32 141.518 1820.98 140.245 Q1822.67 138.949 1822.67 136.31 Q1822.67 133.694 1820.98 132.398 Q1819.32 131.102 1815.89 131.102 L1808.97 131.102 M1804.29 127.259 L1816.24 127.259 Q1821.58 127.259 1824.48 129.481 Q1827.37 131.704 1827.37 135.801 Q1827.37 138.972 1825.89 140.847 Q1824.41 142.722 1821.54 143.185 Q1824.99 143.926 1826.89 146.287 Q1828.81 148.625 1828.81 152.143 Q1828.81 156.773 1825.66 159.296 Q1822.51 161.819 1816.7 161.819 L1804.29 161.819 L1804.29 127.259 Z" fill="#000000" fill-rule="nonzero" fill-opacity="1" /><path clip-path="url(#clip240)" d="M1858.81 147.791 L1858.81 149.875 L1839.22 149.875 Q1839.5 154.273 1841.86 156.588 Q1844.25 158.879 1848.48 158.879 Q1850.94 158.879 1853.23 158.278 Q1855.54 157.676 1857.81 156.472 L1857.81 160.5 Q1855.52 161.472 1853.11 161.981 Q1850.71 162.49 1848.23 162.49 Q1842.02 162.49 1838.39 158.879 Q1834.78 155.268 1834.78 149.111 Q1834.78 142.745 1838.21 139.018 Q1841.65 135.268 1847.49 135.268 Q1852.72 135.268 1855.75 138.648 Q1858.81 142.004 1858.81 147.791 M1854.55 146.541 Q1854.5 143.046 1852.58 140.963 Q1850.68 138.879 1847.53 138.879 Q1843.97 138.879 1841.82 140.893 Q1839.69 142.907 1839.36 146.565 L1854.55 146.541 Z" fill="#000000" fill-rule="nonzero" fill-opacity="1" /><path clip-path="url(#clip240)" d="M1887.35 146.171 L1887.35 161.819 L1883.09 161.819 L1883.09 146.31 Q1883.09 142.629 1881.65 140.801 Q1880.22 138.972 1877.35 138.972 Q1873.9 138.972 1871.91 141.171 Q1869.92 143.37 1869.92 147.166 L1869.92 161.819 L1865.64 161.819 L1865.64 135.893 L1869.92 135.893 L1869.92 139.921 Q1871.45 137.583 1873.51 136.426 Q1875.59 135.268 1878.3 135.268 Q1882.77 135.268 1885.06 138.046 Q1887.35 140.801 1887.35 146.171 Z" fill="#000000" fill-rule="nonzero" fill-opacity="1" /><path clip-path="url(#clip240)" d="M1912.9 139.829 L1912.9 125.801 L1917.16 125.801 L1917.16 161.819 L1912.9 161.819 L1912.9 157.93 Q1911.56 160.245 1909.5 161.379 Q1907.46 162.49 1904.59 162.49 Q1899.89 162.49 1896.93 158.74 Q1893.99 154.991 1893.99 148.879 Q1893.99 142.768 1896.93 139.018 Q1899.89 135.268 1904.59 135.268 Q1907.46 135.268 1909.5 136.403 Q1911.56 137.514 1912.9 139.829 M1898.39 148.879 Q1898.39 153.578 1900.31 156.264 Q1902.26 158.926 1905.64 158.926 Q1909.01 158.926 1910.96 156.264 Q1912.9 153.578 1912.9 148.879 Q1912.9 144.18 1910.96 141.518 Q1909.01 138.833 1905.64 138.833 Q1902.26 138.833 1900.31 141.518 Q1898.39 144.18 1898.39 148.879 Z" fill="#000000" fill-rule="nonzero" fill-opacity="1" /><path clip-path="url(#clip240)" d="M1925.94 135.893 L1930.2 135.893 L1930.2 161.819 L1925.94 161.819 L1925.94 135.893 M1925.94 125.801 L1930.2 125.801 L1930.2 131.194 L1925.94 131.194 L1925.94 125.801 Z" fill="#000000" fill-rule="nonzero" fill-opacity="1" /><path clip-path="url(#clip240)" d="M1960.66 146.171 L1960.66 161.819 L1956.4 161.819 L1956.4 146.31 Q1956.4 142.629 1954.96 140.801 Q1953.53 138.972 1950.66 138.972 Q1947.21 138.972 1945.22 141.171 Q1943.23 143.37 1943.23 147.166 L1943.23 161.819 L1938.95 161.819 L1938.95 135.893 L1943.23 135.893 L1943.23 139.921 Q1944.76 137.583 1946.82 136.426 Q1948.9 135.268 1951.61 135.268 Q1956.07 135.268 1958.37 138.046 Q1960.66 140.801 1960.66 146.171 Z" fill="#000000" fill-rule="nonzero" fill-opacity="1" /><path clip-path="url(#clip240)" d="M1986.21 148.555 Q1986.21 143.926 1984.29 141.379 Q1982.39 138.833 1978.95 138.833 Q1975.52 138.833 1973.6 141.379 Q1971.7 143.926 1971.7 148.555 Q1971.7 153.162 1973.6 155.708 Q1975.52 158.254 1978.95 158.254 Q1982.39 158.254 1984.29 155.708 Q1986.21 153.162 1986.21 148.555 M1990.47 158.602 Q1990.47 165.222 1987.53 168.44 Q1984.59 171.68 1978.53 171.68 Q1976.28 171.68 1974.29 171.333 Q1972.3 171.009 1970.43 170.315 L1970.43 166.171 Q1972.3 167.19 1974.13 167.676 Q1975.96 168.162 1977.86 168.162 Q1982.05 168.162 1984.13 165.963 Q1986.21 163.787 1986.21 159.365 L1986.21 157.259 Q1984.89 159.551 1982.83 160.685 Q1980.77 161.819 1977.9 161.819 Q1973.13 161.819 1970.22 158.185 Q1967.3 154.551 1967.3 148.555 Q1967.3 142.537 1970.22 138.903 Q1973.13 135.268 1977.9 135.268 Q1980.77 135.268 1982.83 136.403 Q1984.89 137.537 1986.21 139.829 L1986.21 135.893 L1990.47 135.893 L1990.47 158.602 Z" fill="#000000" fill-rule="nonzero" fill-opacity="1" /><path clip-path="url(#clip240)" d="M2019.18 131.102 L2019.18 144.088 L2025.06 144.088 Q2028.32 144.088 2030.1 142.398 Q2031.88 140.708 2031.88 137.583 Q2031.88 134.481 2030.1 132.792 Q2028.32 131.102 2025.06 131.102 L2019.18 131.102 M2014.5 127.259 L2025.06 127.259 Q2030.87 127.259 2033.83 129.898 Q2036.82 132.514 2036.82 137.583 Q2036.82 142.699 2033.83 145.315 Q2030.87 147.93 2025.06 147.93 L2019.18 147.93 L2019.18 161.819 L2014.5 161.819 L2014.5 127.259 Z" fill="#000000" fill-rule="nonzero" fill-opacity="1" /><path clip-path="url(#clip240)" d="M2051.26 138.879 Q2047.83 138.879 2045.84 141.565 Q2043.85 144.227 2043.85 148.879 Q2043.85 153.532 2045.82 156.217 Q2047.81 158.879 2051.26 158.879 Q2054.66 158.879 2056.65 156.194 Q2058.64 153.509 2058.64 148.879 Q2058.64 144.273 2056.65 141.588 Q2054.66 138.879 2051.26 138.879 M2051.26 135.268 Q2056.82 135.268 2059.99 138.879 Q2063.16 142.491 2063.16 148.879 Q2063.16 155.245 2059.99 158.879 Q2056.82 162.49 2051.26 162.49 Q2045.68 162.49 2042.51 158.879 Q2039.36 155.245 2039.36 148.879 Q2039.36 142.491 2042.51 138.879 Q2045.68 135.268 2051.26 135.268 Z" fill="#000000" fill-rule="nonzero" fill-opacity="1" /><path clip-path="url(#clip240)" d="M2067.74 135.893 L2072 135.893 L2077.32 156.125 L2082.63 135.893 L2087.65 135.893 L2092.97 156.125 L2098.27 135.893 L2102.53 135.893 L2095.75 161.819 L2090.73 161.819 L2085.15 140.569 L2079.55 161.819 L2074.52 161.819 L2067.74 135.893 Z" fill="#000000" fill-rule="nonzero" fill-opacity="1" /><path clip-path="url(#clip240)" d="M2131.17 147.791 L2131.17 149.875 L2111.58 149.875 Q2111.86 154.273 2114.22 156.588 Q2116.61 158.879 2120.84 158.879 Q2123.3 158.879 2125.59 158.278 Q2127.9 157.676 2130.17 156.472 L2130.17 160.5 Q2127.88 161.472 2125.47 161.981 Q2123.06 162.49 2120.59 162.49 Q2114.38 162.49 2110.75 158.879 Q2107.14 155.268 2107.14 149.111 Q2107.14 142.745 2110.56 139.018 Q2114.01 135.268 2119.85 135.268 Q2125.08 135.268 2128.11 138.648 Q2131.17 142.004 2131.17 147.791 M2126.91 146.541 Q2126.86 143.046 2124.94 140.963 Q2123.04 138.879 2119.89 138.879 Q2116.33 138.879 2114.18 140.893 Q2112.05 142.907 2111.72 146.565 L2126.91 146.541 Z" fill="#000000" fill-rule="nonzero" fill-opacity="1" /><path clip-path="url(#clip240)" d="M2153.18 139.875 Q2152.46 139.458 2151.61 139.273 Q2150.77 139.065 2149.75 139.065 Q2146.14 139.065 2144.2 141.426 Q2142.28 143.764 2142.28 148.162 L2142.28 161.819 L2138 161.819 L2138 135.893 L2142.28 135.893 L2142.28 139.921 Q2143.62 137.56 2145.77 136.426 Q2147.93 135.268 2151 135.268 Q2151.44 135.268 2151.98 135.338 Q2152.51 135.384 2153.16 135.5 L2153.18 139.875 Z" fill="#000000" fill-rule="nonzero" fill-opacity="1" /><path clip-path="url(#clip240)" d="M2172.9 127.259 L2177.58 127.259 L2177.58 157.884 L2194.41 157.884 L2194.41 161.819 L2172.9 161.819 L2172.9 127.259 Z" fill="#000000" fill-rule="nonzero" fill-opacity="1" /><path clip-path="url(#clip240)" d="M2210.91 148.787 Q2205.75 148.787 2203.76 149.967 Q2201.77 151.148 2201.77 153.995 Q2201.77 156.264 2203.25 157.606 Q2204.75 158.926 2207.32 158.926 Q2210.87 158.926 2212.99 156.426 Q2215.15 153.903 2215.15 149.736 L2215.15 148.787 L2210.91 148.787 M2219.41 147.028 L2219.41 161.819 L2215.15 161.819 L2215.15 157.884 Q2213.69 160.245 2211.51 161.379 Q2209.34 162.49 2206.19 162.49 Q2202.21 162.49 2199.85 160.268 Q2197.51 158.023 2197.51 154.273 Q2197.51 149.898 2200.43 147.676 Q2203.37 145.454 2209.18 145.454 L2215.15 145.454 L2215.15 145.037 Q2215.15 142.097 2213.2 140.5 Q2211.28 138.879 2207.79 138.879 Q2205.56 138.879 2203.46 139.412 Q2201.35 139.944 2199.41 141.009 L2199.41 137.074 Q2201.74 136.171 2203.94 135.731 Q2206.14 135.268 2208.23 135.268 Q2213.85 135.268 2216.63 138.185 Q2219.41 141.102 2219.41 147.028 Z" fill="#000000" fill-rule="nonzero" fill-opacity="1" /><path clip-path="url(#clip240)" d="M2225.7 135.893 L2229.96 135.893 L2235.29 156.125 L2240.59 135.893 L2245.61 135.893 L2250.93 156.125 L2256.24 135.893 L2260.49 135.893 L2253.71 161.819 L2248.69 161.819 L2243.11 140.569 L2237.51 161.819 L2232.49 161.819 L2225.7 135.893 Z" fill="#000000" fill-rule="nonzero" fill-opacity="1" /></svg>
